<?xml version="1.0" encoding="utf-8"?>
<!-- Generator: Adobe Illustrator 24.2.2, SVG Export Plug-In . SVG Version: 6.00 Build 0)  -->
<svg version="1.1" id="Layer_1" xmlns="http://www.w3.org/2000/svg" xmlns:xlink="http://www.w3.org/1999/xlink" x="0px" y="0px"
	 viewBox="0 0 90.8 90.8" style="enable-background:new 0 0 90.8 90.8;" xml:space="preserve">
<style type="text/css">
	.st0{fill:#FFFFFF;}
</style>
<g id="Group_399" transform="translate(-55.846 -277.701)">
	<path id="Path_1605" class="st0" d="M61.8,277.7l-6,6l15.9,15.9v36c0,5,3.8,9.1,8.7,9.6v1.2c0,5.3,4.3,9.6,9.6,9.6c0,0,0,0,0,0
		h24.7c3.5,0,6.7-1.9,8.4-4.9l17.5,17.5l6-6L61.8,277.7z"/>
	<path id="Path_1606" class="st0" d="M97.6,296.5c0-0.6,0.5-1.1,1.1-1.1c0,0,0,0,0,0h3.2v10.4l3.6,3.6v-14h4.1v18.2l3.6,3.6v-21.8
		h4.5v26.3l3.6,3.6v-29.9h3c0.6,0,1.1,0.5,1.1,1.1l0,0v32.9l8.3,8.3c0.2-0.7,0.2-1.4,0.3-2.1v-39.1c0-5.3-4.3-9.6-9.6-9.6
		c0,0,0,0,0,0H83l14.6,14.6V296.5z"/>
	<path id="Path_1607" class="st0" d="M117.8,360H87.1c-1,0-1.8,0.8-1.8,1.8c0,1,0.8,1.8,1.8,1.8c0,0,0,0,0,0h30.6
		c1,0,1.8-0.8,1.8-1.8C119.6,360.8,118.8,360,117.8,360z"/>
</g>
</svg>
