<?xml version="1.0" encoding="utf-8"?>
<!-- Generator: Adobe Illustrator 24.2.3, SVG Export Plug-In . SVG Version: 6.00 Build 0)  -->
<svg version="1.1" id="Layer_1" xmlns="http://www.w3.org/2000/svg" xmlns:xlink="http://www.w3.org/1999/xlink" x="0px" y="0px"
	 viewBox="0 0 245.6 226.9" style="enable-background:new 0 0 245.6 226.9;" xml:space="preserve">
<style type="text/css">
	.st0{fill:#FFFFFF;}
</style>
<g>
	<path class="st0" d="M94.1,57.6l-0.3,0.9C93.9,58.1,94.1,57.8,94.1,57.6z"/>
	<path class="st0" d="M93.4,60.5l0.3-1.6c-0.1,0.4-0.3,1-0.3,1.1V60.5z"/>
	<path class="st0" d="M93.8,58.5L93.7,59C93.8,58.7,93.8,58.6,93.8,58.5z"/>
	<path class="st0" d="M44.5,95.3L44.5,95.3V95l0.9,0.4h-0.3v0.1l0.6,0.1c0.1,0,1.2,0.1,1.3,0.3v-0.3l0.6,0.3c-0.6-0.4,0.6-0.4,0,0
		c0.1,0,2,0.3,2.2,0.3c0.4-0.1,0.7-0.3,1-0.1L50.7,96c0.3-0.1,0.7-0.1,1.3-0.1v0.3c0.3-0.3,2.6-2.3,2.8-2.3c0,0.1,0,0.1,0.1,0.3
		c1,0.1,1.6,0.3,1.7,0.1v-0.1L56.4,94h0.3l1.2-1.2v-0.6c0.4,0,0.6-0.3,0.6-0.7c0.4,0,1-0.7,1.7-2.2V89l0.4,0.1v-0.4h0.3
		c0.1-2.5,1.6-6.7,4.2-12.9C67.8,69.7,69,65,68.7,62l1.5-4.1c0.1,0,0.3-0.1,0.7-0.6v-0.1h-0.1c8.6-2.9,14.4-4.1,17.3-3.6L82.3,77
		l-4.8,19.9c0,0.1-0.1,0.7-0.1,0.9L75.2,109c-0.3,1.2-0.4,1.9-0.4,2.3c0,1,0.4,2.6,1.3,4.8c0.4-0.1,1.3,0.4,1.3,0.9H77
		c0.1,0,0.4,0.6,0.6,0.6h0.3l-0.3-0.1h0.6l0.3-0.1c0.1,0,0.1,0.1,0.1,0.4h-0.3l0.3,0.1c0.1,0,0.3,0,0.4-0.1s0.3-0.3,0.4-0.3
		c0,0.3,0.1,0.4,0.3,0.4c0.3,0,0.4-0.1,0.4-0.3v-0.9c0.4,0,0.6-0.3,0.6-0.7l-0.3-0.3c0.1-0.1,0.4-0.3,0.6-0.3l0.3,0.1
		c-0.1-0.7-0.1-1,0-1c-0.6-0.3,0.6-0.3,0,0l0.1,0.1c0.3,0.3,0.4,0.3,0.4-0.1v-0.1l-0.1-0.4v-0.1l0.4,0.4l0.3-0.3l1.3-9.7
		c-0.3-1-0.3-2.3,0.1-3.9l0.3,0.1v-2.3c0.1-1.2,0.3-1.9,0.3-2.3L84.3,96c1.9-8.3,3.2-14.1,3.6-17.6l0.3-1.3l0.3-0.3
		c0.1-0.4,0.1-0.7,0-1l0.9-3c-0.1-0.4,0.1-1.5,0.7-3.3c0.7-1.9,1.2-2.9,1.3-2.9c0-0.6,0-1,0.1-1.3l0.3,0.1v-1l0.1,0.3
		c0-0.1,1.2-2.9,1.2-3.6V61l-0.4,1v-0.4l0.1-0.6c0.4-1,0.7-2.3,0.9-2.9c0-0.1,0.1-0.3,0.3-0.4v0.1v0.1c0-0.1,0-0.3,0.1-0.4
		c4.2-3.9,7.5-5.9,9.9-5.9h1.3c0.3,0,0.4,0.1,0.4,0.4c0.4-0.1,1-0.1,1.7-0.1c0.4,0,0.9,0.1,1.3,0.2c-2.5,3.3-4.9,7.3-7,11.9
		c-0.6,3.5-1.6,6.7-3.2,9.7v3.5l0.9,3c0-0.1,0-0.1,0.1-0.1v0.1h-0.1c0.3,1,0.4,1.6,0.4,2c1.2,2.3,2.5,3.9,4.1,4.8
		c0-0.1,0-0.3,0.1-0.3V87c0.6,0.4,1,0.6,1.4,0.7l1.3,0.4c0,0.4,1.5,1.2,2,1.2l0.1-0.1h0.3c0.3,0,0.4,0.1,0.4,0.3h-0.1
		c-0.1,0-0.1,0-0.3-0.1c0,0.4,0.1,0.6,0.3,0.6h0.1c0-0.1,0.1-0.1,0.3-0.3c0.1,0.1,0.3,0.3,0.3,0.4c0.1,0,1.9,0.1,2,0.1h0.3l-0.1-0.1
		c1,0,2.2-0.3,2.9-0.3l-0.1-0.3c0.4,0,1.2-0.1,1.9-0.6h0.1l0.1,0.3c0.1,0,0.1-0.1,0.1-0.4h0.4l-0.3,0.1h0.3c0.6,0,1-0.3,1.2-0.7
		h-0.6c0.9-0.9,1.6-1.3,2.2-1.3l0.1,0.1l0.1,0.1c-0.3,0-0.6,0.1-1,0.6l-0.1,0.1c0.6,0,2-0.9,2-1.5h0.4l1-0.9
		c1.7-1.6,3.6-3.8,5.5-6.4c0.1-0.8,0.9-2.1,2.2-3.7l-0.2,0.5c-0.4,2.5-0.7,3.8-0.9,3.9c-0.1,0.1-0.4,2.5-0.4,2.6v0.3l-0.1,0.3v5.7
		c0,4.2,2.5,7.4,7.4,9.9v0.1h0.1l1.7,0.7L138,99l0.6,0.1c-0.1,0-0.3,0.1-0.3,0.3c1.7,0,2.9,0.1,3.6,0.4h-1.6
		c1.3,0.1,2.2,0.3,2.6,0.3c1.9,0,6.5-1.9,7.3-3l-0.1-0.3c-0.1-0.1,0-0.1,0.3-0.3c0.6,0,1-1.3,1.4-1.5l7.5-6.5l1.3-1.5
		c0.2,1,0.4,2.1,0.6,3.2c0.9,4.8,1.7,6.8,2.6,5.9l0.1-0.3c0.4-0.4,0.9-2.9,1-7.1s1-6.7,2.5-7.4h0.4c0.4-1,1.2-3.6,1.3-4.1
		c0-0.4-0.1-0.9-0.4-1.2l0.6,0.3v-0.1c0.1,0.1,0.3,0.1,0.7,0.1h0.4l0.3-0.1l0.1,0.1l-0.1,0.1h0.3h0.4c-0.1,0.1-0.1,0.3,0.1,0.3
		l0.1-0.1c0.1,0,0.1,0,0-0.1c0.1-0.1,0.6-0.1,1.5-0.1c0-0.1-0.1-0.1-0.3-0.1c-0.1-0.1-0.1-0.1-0.1-0.3c1,0,1.7,0.1,2,0.3l0.1-0.3
		c0,0.3,0.1,0.6,0.3,0.7l0.1-0.1v-0.1l-0.1-0.1v-0.1c0-0.1,0.7-0.1,0.9-0.6c0,0.1,0.1,0.1,0.1,0.3h0.1c0-0.1,0.1-0.1,0.1-0.3
		l0.6,0.3l0.4,0.1l0.1,0.1c0-0.4,0.3-0.7,1-0.9c0-0.1,0-0.1,0.1-0.3c0.1,0,0.1,0.3,0,0.3c0.3-0.1,0.6-0.1,1-0.1l0.1-0.1
		c0.1,0,0.1,0.1,0.3,0.1h0.1l0.6-0.6l0.3,0.1c0.7,0,2.8-1.3,2.8-1.9c0.3,0,0.4,0.1,0.6,0.3c0.1-0.3,0.9-0.9,2.2-1.9
		c3.6-2.8,6.4-5.2,8.3-7.3v-0.1l-0.1-0.3l0.3,0.1h0.1c2-1.6,4.1-4.4,6.2-8v-0.1l0.4-0.7c-0.1,0-0.1,0-0.3-0.1c0-0.1,0.7-0.9,0.9-1.3
		h0.1l0.9-1.7l-0.1-0.3c-0.1,0-0.1-0.1-0.3-0.1c0-0.1-0.3-0.4-0.3-0.6v-0.1l0.6-1v-0.1c-0.1,0-0.1-0.3-0.3-0.3v-0.1
		c0.1,0,0.1,0,0.3-0.1c0-0.4-0.6-1-0.6-1.5l0.1-0.3l-0.3-0.3c-0.3-0.1-0.4-0.3-0.4-0.4l0.4-0.4l-0.1-0.1l-0.4,0.3
		c0.1-0.7-0.9-2.3-1.6-2.3c0,0.1,1,1.2,1,1.6c0,0-7-6.1-12.8-6.1c-3.8,0-7.5,0.9-11.3,2.6c-0.4-0.1-1.7,0.7-1.9,0.7
		c-0.1,0-0.4-0.1-0.9-0.3c0.1,0.1,0.1,0.3,0,0.3s-0.1-0.4,0-0.4c-0.3-0.1-0.4-0.3-0.4-0.4h0.4l-1-0.3l-0.3,0.3l-0.1-0.1l-0.3-0.4
		l-0.3-0.3c-0.3,0-0.4,0.1-0.6,0.4l-0.3-0.1c-0.1-0.1-0.3-0.1-0.3-0.3c-1,0-2.2,5.7-2.6,6.1l-4.5,4.1c-0.6,0.1-0.9,0.7-0.9,1.5v0.4
		l0.1-0.1l0.3,0.6l-0.3-0.1c0.1,0.4,1.4,1.6,1.6,1.6c0,0.4,0,0.9-0.1,1.2L161,66.8c-1.3,3.3-1.9,7.1-1.9,11.5c0,1.3,0.1,2.9,0.4,4.8
		c-3.7,1.7-5.6,2.9-6,3.6l-9.6,4.6c-1.6,0.7-2.6,1-3,1c-0.6,0-0.9-1.3-0.9-3.8c0-2.2,0.7-5.1,2.3-9s2.3-6.7,2.3-8.6h0.3
		c0-0.3-0.1-0.4-0.3-0.4h0.4l-0.1-0.3l-0.3-0.4c1,0.3,0.9-1.5,1.2-1.7l0.3,0.1L147,67v-0.1l0.1-0.1c0.1,0.1,0.3,0.1,0.4,0.1
		c-0.1-0.1-0.3-0.4-0.3-0.9v-0.6l0.4,0.1c-0.1-0.6,0.9-1.9,0.9-2.3l-0.1-0.3c1.2-2,1.7-3.3,1.7-4.1h0.1c0-1.7,1-4.6,3.2-8.6
		c2.2-3.9,3.2-7,3.2-9v-0.4c0-0.4,0-1-0.1-1.7l-1-0.9l-4.6-2.2l0.6,0.6c-0.4-0.1-1.2-1-1.3-1c-0.4,0-0.6,0.1-0.4,0.4l-0.6-0.1
		l0.4-0.4h-1.2l0.1-0.1h-0.1c-1.2,0-1.7,0.4-1.7,1.2c0,0.1,0.1,0.6,0.1,0.7c0,0.9-0.4,1.7-1.2,2.5l-7.4,15.5
		c-1.7,4.8-2.8,7.5-3.2,8.3l-1.1,3.2c-0.3,0.2-0.5,0.4-0.8,0.6c-2.6,1.7-4.4,3.2-5.2,4.4l-3,2.3l-4.1,3.2c-1,0.7-2.3,1.6-4.1,2.6
		c-3.3,2.2-6.2,3.2-9,3.2c-0.6,0-0.9-1-0.9-2.9c0-3,0.3-4.5,0.7-4.5h0.1c0-0.1,0-0.1,0.1-0.3c0.1,0,0.1,0.3,0,0.3l0.3,0.1
		c0,0,0,0,0.1,0c-0.6-0.3,0.6-0.3,0,0c0.1,0.1,0.6,0.3,0.7,0.3c-0.1,0-0.1-0.3,0-0.3V76l0.9,0.4c0-0.6,0.6-0.3,0.1,0.1
		c0.6,0.1,1,0.3,1.5,0.3c2.8,0,5.5-1.6,8.6-4.8v-0.3l-0.1-0.1c2.5,1.7,9.6-13.6,9.3-17.6c0-2.2-0.7-3.9-2.3-5.5c0,0.1-0.4,0.1-0.4,0
		h0.4c-1.9-1.9-4.4-2.9-7.4-2.9V46h-2.3l-0.1-0.3c0.4,0.1,0.6,0.1,0.6-0.3l-0.1-0.1c-0.6,0-1.7,0.7-1.9,0.7c-0.3,0-0.6-0.1-0.7-0.3
		c0.7,0,1.2-0.1,1.2-0.4h-0.3h-0.4c-0.3,0.1-0.4,0.1-0.6,0.1c-1,0.9-2.1,1.8-3.1,2.9c-0.8-3.3-4.3-5.3-7.2-5.9l-2.5-0.7l0.1-0.3
		l0.4-0.4l4.8-10.4l0.1-0.4c1.3-3.3,2-5.2,2.2-5.4c0.1-1.6,1-4.1,2.3-7.4c1.3-3.5,2-6.2,2-8.4c0-1.9-1.6-3.9-3.3-4.5
		c-0.6,0-2.9-0.3-3.9-0.3h-0.4l-0.1,0.3h-0.9l-0.1-0.1c-0.1-0.1-0.1-0.1,0-0.3c-0.7,0.3-1.2,0.4-1.3,0.3c-0.3,0.1-1.9,2-4.6,5.5
		L78.7,38.2l-0.1,0.3L74.4,45L66,47.6h-0.1l-0.3-0.3L65,47.7v-0.1c0.4,0,0.1-1.3,0.7-1.5c0-4.9,3.6-9.7,3.9-10.7
		c0-0.1,0-0.4,0.1-0.9l-0.1-0.1L69.3,33v-0.3c0-0.1,0.3-0.9,0.3-1.3h0.1c0-0.7,0.9-3.2,2.5-7.1l0.1,0.1c-0.1,0.1-0.1,0.4-0.1,0.9
		l0.1,0.3c0-0.1,0.1-0.4,0.3-0.9c1.3-3.9,2-7.3,2.3-10.3l-0.1-0.7c-0.6,0,0-1.3-0.6-1.3h-0.1v0.3c-0.7-0.1-2-1-2.8-1.2l-0.1-0.1
		L68.7,11v0.1c-0.4,0-1.2-0.3-1.7-0.3c-1,0-1.7,0.4-2.2,1.3l0.1,0.4v0.1l-0.4,0.7L50.9,52.7h-0.7c-0.6,0-1.7-0.1-2.3-0.1l-0.1,0.1
		h-1.5c0,1.2,2.6,2.9,3.3,3.6l-2.9,8.4l-4.1,13.1c-0.1,1.3-1.2,4.6-1.3,5.9v0.9c0,0.1,0,0.1,0.1,0.3c0.1,0.1,0.1,0.3-0.1,0.3v0.3
		c0.4,0,0.4,0.4,0,0.4l-0.1,2.5c0,0.1,0.3,1.3,0.4,1.5v0.6l-0.6-2v0.4c0,0.7,0.4,1.9,1.2,3.8C42.9,94.5,43.8,95.3,44.5,95.3z
		 M172.9,66.2c-0.1-0.1-0.1-0.4-0.1-0.9c0-0.1,0.3-1,1-2.3l0.3-0.1l-0.1-0.3v-0.3c0-0.7,0.4-1.9,1.3-3.6v-0.3l0.1,0.1
		c0.7-1.6,1.3-2.5,1.5-2.5c0-1,1.3-3.3,1.3-4.4h0.1l0.3-0.3h0.1l0.1,0.3h0.1c0-0.4-0.1-1-0.1-1.2c0-0.4,0.1-0.6,0.3-0.6
		s0.1,0,0.1,0.1l0.9-0.9l0.1,0.4c0.4-0.9,0.9-1.3,1.2-1.5c-0.4-0.3,0.1-0.4,0.1-0.3l0,0c1,0,4.4-2.5,5.5-2l-0.1-0.1
		c0.7,0.1,1.7,0,3-0.4V45l-0.3-0.3l-0.3-0.1c0.1,0,0.1,0,0.3-0.1h0.1l0.4,0.4v0.3c0.6,0,2.3-0.3,3-0.3c-0.3,0-2.6-0.1-2.6-0.4v-0.1
		c1.3,0,3.8,0.9,4.8,0.9c0.1,0,0.1,0,0.1-0.1c0.3,0.3,0.4,0.6,0.4,0.9c0,4.1-3.8,8.4-8.7,12c-2.3,1.9-5.7,4.2-8.1,5.5l-4.1,2.5
		c-1.7,1-2.9,1.6-3.3,1.6C171.8,67.2,172.4,66.1,172.9,66.2z M114.3,59.5l4.6-4.8c0.7-0.7,1.2-1,1.6-1c1.2,0-0.3,2.3-0.3,3.6
		c0,0.4,0,0.6,0.1,0.7l-0.3-0.1c-1.2,2.6-4.2,6.5-9.1,11.6c-0.6,0.6-1.6,1-2,1.5l-0.1-0.1c0-0.9,0.4-2.2,1.3-3.9
		c1-1.7,1.4-2.9,1.6-3.3L114.3,59.5z M76.8,44.1l0.3-0.6l0.3-0.6c9.4-12.5,15.7-20.2,18.7-23.1l0.3-0.3v-0.1h0.1
		c0-0.1,0-0.1,0.1-0.3l0.1,0.1c0.3-0.3,0.4-0.4,0.4-0.6h0.1c-0.1,0-0.1-0.3,0-0.3v0.1c0-0.6,0.6,0,0.1,0c0,0.1,0,0.1-0.1,0.1h0.1
		l1-0.7v0.4L91,41.7c-0.1,0.1-0.4,0.3-0.9,0.3L77,44.3h-0.3v-0.2H76.8z M57,73.1L57,73.1l0.1-0.2l3.3-11.6h0.1l0.3,0.1v-0.1
		c0-0.4-0.4-0.9-0.4-1h0.4c0-1.5,1.3-2.2,4.1-2.2V58l1.7-0.4V58l-4.1,7c-3.5,5.7-5.4,8.6-5.7,8.7c0-0.1-0.3-0.7-0.3-0.9L57,73.1z"/>
	<path class="st0" d="M105.7,87.4C105.1,87.6,106.3,87.6,105.7,87.4L105.7,87.4z"/>
	<path class="st0" d="M181.6,48.1c0,0-0.1,0.1-0.1,0.2h0.1V48.1z"/>
	<path class="st0" d="M181.6,48L181.6,48C181.6,48,181.6,48,181.6,48z"/>
	<path class="st0" d="M106.9,139.3L106.9,139.3C106.9,139.2,106.9,139.3,106.9,139.3z"/>
	<path class="st0" d="M115.6,103.3L114,110c-0.1,0.1-0.2,0.3-0.2,0.8L113,114v0.1l-1.6,5.4c-0.4,0.7-1.7,4.5-2.8,8.5l-0.9,3.3
		c0,0.3-0.7,1.2-0.6,1.5c0,0.2-1.3,3.6-1.3,4.6c0,0.8,0.6,1.5,1.3,1.4l-0.1,0.1l-0.2,0.1l-0.2,0.1l-0.2-0.1h-0.1l0.4,0.3
		c-0.1-0.1,0.4-0.1,0.1,0.1l0.3,0.2l-0.1-0.2l0.3,0.1c0,0.1-0.1,0.3-0.2,0.3c0.5,0.3,0.8,0.5,1.1,0.5c0.4,0,1-0.6,1.7-1.7l3-4.8
		l0.5-0.7c0-0.1,0-0.1,0.1-0.2l4.4-6.8c0.6-0.6,1.1-1.3,1.5-2.1l3.2-4.3c0.8-0.6,1.8-1.8,3.1-3.7c1.3-1.9,2.6-3.5,3.9-4.8
		c1.3-1.3,2.8-1.9,4.4-1.9c0.2,0,0.3,0,0.3,0.1c0.3,0.1,0.3,0.5,0.3,1.3c0,0.6-0.3,1.8-0.9,3.7c-0.6,1.9-0.8,3.2-0.6,3.8l-0.8,3v0.2
		c-0.8,3-1.1,5.5-1.1,7.5v1.5c0.3,0.9,0.8,3.5,1.4,5c0.6,1.3,1.4,1.9,2.5,1.9c0.3,0,0.6-0.4,0.7-1.3c0.1-0.8,0.3-1.3,0.3-1.4
		l-0.2-0.2l-0.1,0.3h-0.1l-0.1-0.1h-0.1l0.2-0.3c0.1-0.3,0.2-0.4,0.3-0.4h0.1l0.1,0.2c0.1-0.1,0.2-0.3,0.2-0.7v-0.3l-0.1,0.2
		l-0.1-0.3v0c0,0,0.1,0,0.2-0.1l0.3,0.1c0-0.2,1.7-4.6,1.5-4.8l-0.1-0.1c-0.2,0.2-0.5,1.4-0.8,1.7v-0.2c0-0.6,0.1-0.8,0.3-0.9
		l0.3-1.3c0.3,0,0.4-0.8,0.5-2.3s0.3-2.3,0.6-2.3l0.2,0.2l0.2-0.2v-0.1c-0.3,0-0.4-0.1-0.4-0.3l0.4-0.7c0-0.1-0.1-0.1-0.3-0.1
		l-0.1-0.2l0.1-0.1l0.3-0.3c-0.1-0.1-0.3-0.1-0.6-0.1c0-0.8,0.2-0.2,0.6-0.2c0-0.1,0-0.2-0.1-0.3v-0.3V120c0.3,0,0.3,0.2,0.3,0.4
		h0.2l-0.1-0.3c-0.1,0.1-0.3-0.3-0.3-0.5c0-0.1,0.3-0.3,0.3-0.5v-0.2l-0.2,0.3v-0.6h-0.3v0.4c0-0.1,0-0.2,0.1-0.3l0.1-0.2l-0.1-0.2
		v-0.1l0.1-0.4v-0.4c0.3,0.1,0,0.8,0.3,0.8c0-0.1,0.3-1,0.3-1.3c-0.2,0-0.3-0.1-0.4-0.3c0.3,0.2,0.5-0.4,0.5-0.6v-0.3l-0.1-0.1v-0.1
		l0.3-1.1v-2.7l0.1-0.1c-0.2,0-0.3-0.2-0.3-0.4V111c0,0.1,0.1,0.2,0.2,0.2c0-0.4-0.8-2.5-1.1-2.5h-0.1l0.1,0.2
		c0.1,0.2,0.2,0.3,0.2,0.3c-0.1-0.1-0.3-0.2-0.3-0.2l0.1-0.2l-0.5-0.5h0.2c0-0.3-1-0.9-1.3-0.9l0.1,0.2l-0.7-0.1
		c0-0.3-1.2-0.7-1.4-0.7v-0.3c0-0.1-0.3-0.2-1-0.2c-2.6,0-5.9,2.8-7.9,5.3l-3.8,4.7l-0.2,0.2l-5.2,6.9c-0.9,1.6-3.7,4.9-4.7,6.3
		l-2.8,3.7h-0.1c0-0.4,0.9-1.9,0.8-2.3l2.5-8.2c1.5-5,2.9-8.6,4.3-10.8c0.2-0.5,0.8-2,1.9-4.4s1.9-4.5,2.3-6.1
		c0.5-1.6,0.8-3.2,0.8-4.8v-1c-0.1-0.5-0.3-0.8-0.5-0.8c0-0.7-0.2-1-0.5-1h-0.1c0.3,0.2,0.4,0.3,0.4,0.6l-0.3-0.2
		c-0.1-0.1-0.3-0.2-0.3-0.1c-0.3-0.6-0.8-0.8-1.3-0.8c-0.1,0-0.2,0-0.2,0.1c-0.2-0.3-0.7-0.4-1.4-0.4v0.1l0.2,0.2l0.3,0.2h-0.3
		c0,0.3,0,0.4-0.1,0.5c-0.2-0.8-0.5-1.2-0.9-1.2c-1.7,0-3.8,1.6-5.3,3.4c-0.7,0.7-1.9,2.2-2.3,2.8c-0.3,0.6-1.5,2.1-1.6,2.2
		l-0.2,0.1l-2.3,3.2c-0.4,0.3-0.8,0.8-1.1,1.5l-6.3,10.2c-0.4,0.7-0.7,1.1-0.8,1.3v-0.1c0-0.4,0.3-1.2,0.8-2.2
		c0.6-1.1,0.8-1.8,0.8-2.4l-0.1-0.2v-0.2l0.1-0.2c0-0.2-0.1-0.3-0.2-0.4h0.1l0.3,0.2l0.3-1.3c0-0.3-0.3-0.4-0.3-0.7V110l0.1,0.3
		v-0.8l0.3,0.4l-0.2,0.1v0.6h0.1c0.3,0,0.3-0.4,0.3-1.3l-0.1-0.3c0,0.3-0.1,0.5-0.3,0.5v-0.3h-0.2c0-0.1,0.3-0.4,0.2-0.7
		c0.1,0,0.3,0.3,0.4,0.3v-0.3l0.1,0.2c0.6-1.5,0.8-2.9,0.8-4.3V104l-0.1-0.1c0-0.6,0-1-0.1-1.1h0.1l0.2,0.1l-0.3-0.5l0.3-0.1
		l-0.1-0.3l0,0c0-0.3,0.1-1.1,0.1-1.4h-0.1v-0.2h0.2l-0.3-0.3l0.1-0.1c0.4-0.4-0.3-1-1-1.6L99.7,98l0.2,0.1c0.2,0.1,0.3,0.1,0.3,0.1
		h0.2l-0.6-0.3h0.1L100,98h0.2l-0.3-0.3h-0.1l-0.1,0.1l-0.1,0.1L99,97.4h0.1c0.1,0,0.2,0,0.3,0.1l0.2,0.1l0.1,0.1v-0.2l-0.3-0.2
		L98.8,97l-0.3-0.2L97,96.2c-0.1-0.1-0.3-0.2-0.3-0.2l-0.1,0.2h-0.3c0.2,0.1,0.3,0.3,0.3,0.5c0,0.3-0.3,1-0.3,1.3h0.1v0.1h-0.2
		c0-0.5-4.2,10.4-4.6,11.1l-3.3,8.7l-0.1,0.2l-1.1,3.2l-0.2,0.3l-1.2,3.3c0,0.1,0,0.2-0.1,0.3c0,0.1,0,0.3-0.1,0.3
		c-1.8,5.7-2.9,10.7-3.3,15.1v0.9c0,1.7-0.5,5.7,2.2,5.7c0,0.3,0.2,0.4,0.4,0.4v-0.2l0.5,0.1v0.1h-0.1l-0.2,0.1
		c0,0.1,0.1,0.2,0.2,0.2v0.1c0.1,0,0.1,0,0.1-0.1l0.2-0.2h0.1c0.1,0,0.1,0,0.2,0.1l0.1,0.1v0.2h-0.1l-0.1,0.1
		c0.2,0.1,0.4,0.1,0.7,0.1l-0.2,0.1h0.2c0.2,0,0.3-0.1,0.2-0.2c0.3,0.1,0.4,0.2,0.7,0.2c0.1,0,0.1,0,0.1-0.1l0.1,0.1h0.1
		c0.1,0,0.1-0.1,0.1-0.3h0.4v0.1h0.5c-0.3-0.3,0.3-0.3,0,0H89h0.1h0.4c-0.1,0-0.1,0-0.2,0.1c0.3,0,0.4,0.1,0.6,0.3l0.6-0.6h0.1
		l0.1,0.1l0.1,0.1l-0.1-0.2v-0.2v-0.1l0.1-0.2c0.1-0.1,0.1-0.1,0.2,0v0.3l0.1-0.3l-0.3-0.3c0.2,0.1,0.3,0.1,0.3,0.1h0.1
		c-0.1-0.1-0.2-0.2-0.2-0.3h-0.1l0.1-0.1c0,0.2,0.1,0.3,0.3,0.3h0.1c-0.2-0.2-0.3-0.3-0.3-0.3c-0.1-0.1,0.2-0.9,0.4-0.9
		c0.1,0,0.1,0.1,0.2,0.2V146c0.3,0.1,0.4,0.5,0.5,0.6l0.2-0.5c-0.3,0.1-0.5-0.4-0.5-0.7H92c0,0.1,0,0.2,0.1,0.3l0.1-0.1
		c0-0.5-0.2-0.9-0.4-1.2h0.3c-0.1-0.1-0.2-0.3-0.2-0.4c0-1.1,0.2-1.7,0.4-1.8c-0.1-0.1-0.1-0.2-0.1-0.3v-0.1l1.1-5.2
		c0.4-1.4,0.7-2.2,0.7-2.3l2.3-7l3.3-7.6c0.4-1.3,2.2-3.7,2.6-4.7l4.2-6.3l1.3-1.8c1.8-2.4,2.3-3.1,4.1-5.1c1.8-2,3.3-3.1,4.8-3.5
		v0.3C116.4,99.9,115.7,102.5,115.6,103.3z"/>
	<path class="st0" d="M148.3,139.6C147.8,139.8,148.9,139.8,148.3,139.6L148.3,139.6z"/>
	<path class="st0" d="M178.5,117.4h-0.1c-0.9,0.9-2.5,2.2-5,4c-2.4,1.6-4,2.9-4.7,4l-2.8,2.1l-3.7,2.9c-0.9,0.7-2.1,1.5-3.7,2.4
		c-3,2-5.7,2.9-8.2,2.9c-0.5,0-0.8-0.9-0.8-2.6c0-2.8,0.3-4.1,0.7-4.1h0.1c0-0.1,0-0.1,0.1-0.3c0.1,0,0.1,0.3,0,0.3l0.3,0.1
		c0,0,0,0,0.1,0c-0.5-0.3,0.5-0.3,0,0c0.1,0.1,0.5,0.3,0.7,0.3c-0.1,0-0.1-0.3,0-0.3v0.3l0.8,0.4c0-0.5,0.5-0.3,0.1,0.1
		c0.5,0.1,0.9,0.3,1.3,0.3c2.5,0,5-1.5,7.8-4.4v-0.3l-0.1-0.1c2.2,1.6,8.7-12.4,8.4-16c0-2-0.7-3.6-2.1-5c0,0.1-0.4,0.1-0.4,0h0.4
		c-1.7-1.7-4-2.6-6.7-2.6v0.3h-2.1l-0.1-0.3c0.4,0.1,0.5,0.1,0.5-0.3l-0.1-0.1c-0.5,0-1.6,0.7-1.7,0.7c-0.3,0-0.5-0.1-0.7-0.3
		c0.7,0,1.1-0.1,1.1-0.4h-0.3h-0.4c-0.3,0.1-0.4,0.1-0.5,0.1c-4.5,3.7-8.4,9.2-11.7,16.5c-0.5,3.2-1.5,6.1-2.9,8.8v3.2l0.8,2.8
		c0-0.1,0-0.1,0.1-0.1v0.1h-0.1c0.3,0.9,0.4,1.5,0.4,1.8c1.1,2.1,2.2,3.6,3.7,4.4c0-0.1,0-0.3,0.1-0.3v0.3c0.5,0.4,0.9,0.5,1.3,0.7
		l1.2,0.4c0,0.4,1.3,1.1,1.8,1.1l0.1-0.1h0.3c0.3,0,0.4,0.1,0.4,0.3H152c-0.1,0-0.1,0-0.3-0.1c0,0.4,0.1,0.5,0.3,0.5h0.1
		c0-0.1,0.1-0.1,0.3-0.3c0.1,0.1,0.3,0.3,0.3,0.4c0.1,0,1.7,0.1,1.8,0.1h0.3l-0.1-0.1c0.9,0,2-0.3,2.6-0.3l-0.1-0.3
		c0.4,0,1.1-0.1,1.7-0.5h0.1l0.1,0.3c0.1,0,0.1-0.1,0.1-0.4h0.4l-0.3,0.1h0.3c0.5,0,0.9-0.3,1.1-0.7h-0.5c0.8-0.8,1.5-1.2,2-1.2
		l0.1,0.1l0.1,0.1c-0.3,0-0.5,0.1-0.9,0.5l-0.1,0.1c0.5,0,1.8-0.8,1.8-1.3h0.4l0.9-0.8c1.6-1.5,3.3-3.4,5-5.8c0.1-0.9,1.2-2.5,3-4.6
		c-0.4-0.9,0.5-2.5,2.6-4.9C177.5,119.8,178.5,118.2,178.5,117.4z M152.3,121c0.9-1.6,1.3-2.6,1.5-3l2.4-3.7l4.2-4.4
		c0.7-0.7,1.1-0.9,1.5-0.9c1.1,0-0.3,2.1-0.3,3.3c0,0.4,0,0.5,0.1,0.7l-0.3-0.1c-1.1,2.4-3.8,5.9-8.3,10.5c-0.5,0.5-1.4,0.9-1.8,1.3
		l-0.1-0.1C151.1,123.8,151.5,122.6,152.3,121z"/>
	<path class="st0" d="M10.8,213.3l-0.2-0.2C10.6,213.1,10.6,213.2,10.8,213.3z"/>
	<path class="st0" d="M53.3,205.4C54,205.1,52.7,205.1,53.3,205.4L53.3,205.4z"/>
	<path class="st0" d="M53.5,132.4C54.1,131.9,52.8,131.9,53.5,132.4L53.5,132.4z"/>
	<path class="st0" d="M84.2,207.8c0.7-2.8,1-4.5,0.8-4.9l0.3,0.2c0-0.5,0.3-1.5,0.2-2.1l0.2,0.5v-1l-0.2-0.2l0.2-0.3l0.2,0.3
		l0.2-0.3h-0.2c-0.5,0,0.2-0.7,0.2-0.2c0.2-0.2,0.2-0.5,0.2-0.8l0.2,0.3l0.2-0.8V198l-0.2-0.2c0-0.2,0-0.3,0.2-0.5l0.2,0.5
		c0.2-0.5,1-3.5,1.8-4.1l1.3-2.5c0.2-0.2,0.2-0.3,0.2-0.5H90v-0.2l0-0.5h0.2l0.3,0.2c-0.2-0.2-0.2-0.3-0.2-0.8
		c0-0.7,0.8-3.6,1.3-3.6v-1.3l0.3,0.3c-0.2-0.2-0.2-0.3-0.2-0.5s1.6-1.8,0.3-1.8l0.2-0.3c0.2,0.2,0.3,0.2,0.5,0.2
		c0-0.5,0.5-1.5,0.3-2l0.3,0.2l0.3-1.2c0.2,0,0.2,0,0.2,0.2v2l1-2.3v-0.7c-0.5,0-0.7,0.7-0.8,0.7c-0.2,0-0.3-0.2-0.3-0.3
		c0-2,2.6-6.4,2.6-8.2H97l-0.2,1l-0.2-0.5c-0.2,1.3-2,5.4-2,7.3c0.7,0,1-0.7,1-2.1h0.2c0-6.4,6.9-7.9,7.6-9.9v-0.3
		c0-1.3-3.1-1.5-3.8-2.1c0.2-0.3,0.3-0.8,0.3-1.5v-0.3l-0.3,0.8h-0.3c0-2.1,0.5-3.6,1.6-4.1v-0.2v-1.3c0.3,0,0.5-0.2,0.7-0.7
		l0.2-0.2h-0.2c0.7-1.5,1.3-5.3,2.1-11.2h0.3c0-0.8-1.6-2.1-1.8-2.3c-0.2,0.2-0.3,0-0.3-0.2c-0.2-0.3-0.2-0.5-0.3-0.5h-0.5V142H101
		v0.2c-0.2,0-0.3,0-0.5-0.2c-0.5-0.2-1.3-0.3-2.5-0.8l0.3-0.2c-0.3-0.2-0.8-0.3-1.5-0.3c-0.5,0-0.7,0.2-0.8,0.5
		c-0.2,1.6-0.7,3-1.5,4l0.2,0.2v0.2c-0.3,0.5-0.8,1.6-1.5,3.8l-0.2,0.3l-5.3,14.2L72,168.7c-0.5,0-1,0-1.2,0.2v-0.2
		c0-0.7,1.6-4.3,1.8-4.5c0.2-1.3,2-4.9,2.1-5.4H75c0.2,0,0.2-0.3,0-0.3c0.3-1.3,0.5-2,0.5-2.1h-0.3l0.2-0.5l0.3,0.2v-0.2
		c0-0.2,0-0.3,0.2-0.7l0.5,0.3v-0.2c0-0.2-0.2-0.8-0.3-1l-0.2-0.2c0-0.7,0.5-1.6,0.5-2.1H76c0,0.5-1.5,4.6-2,4.6
		c0,0.7-0.8,2.1-0.8,2.8c-0.2,0-0.3-0.2-0.5-0.3v0.8h0.2l0.2,0.2c-0.2,0-0.2,0.2-0.3,0.3l-0.2,0.3c0-0.5-0.2-0.7-0.3-0.7v0.8
		l0.2,0.3l-0.2,0.3c0,0,0,0,0,0.2l-0.3-0.2l0.2,0.5l-0.5,0.2h-0.2c-0.2,0-0.3-0.3-0.3-0.8c0-0.8,0.7-2.5,1.8-4.9l2-4.1
		c0.8-0.5,1.5-2.1,1.6-4.6c0.3-2.5,0.8-4.1,1.5-4.6l0.2,0.2v1.5l0.3,0.3V144h0.3v0.5c0.2,0.2,0.2,0.5,0.2,0.7h0.2
		c0.2-0.2,0.2-0.2,0.2-0.3v-2c-0.5,0-0.7-0.2-0.7-0.5H79c0-0.8-0.3-1.2-1.2-1c0.2,0,0.2-0.2,0.3-0.2V141c-0.8,0-1.2-0.2-1.2-0.5
		l0.3,0.2h0.2c0-0.3-0.2-0.5-0.5-0.5c-0.2,0.2-0.2,0.2-0.3,0.2h-0.2c-0.2,0-1-0.2-1.5-0.2v-0.7c-0.2,0.2-0.3,0.3-0.8,0.3v0.2
		c-0.7,0-1.3,2.8-1.3,3.6h-0.3L58,173.3c-2.6,5.8-4,10.5-4,14.3c0,2.6,0.4,5.1,1.2,7.4l-20,12.3c-4,2.4-7.5,3.7-10.7,4.2l-0.3-0.2
		H24l-0.2,0.2h-0.2c-0.2-0.2-0.3-0.2-0.5-0.2h-0.2v0.2h-0.5l-0.3,0.2l-0.2-0.2h-0.3v0.2c-3.5,0-5.3-0.5-5.3-1.4
		c0.2,0.2,1.6,0.3,2.1,0.8c0.5,0,2.2,0.2,2.4,0.2h0.3c0.8,0,3-0.8,4.2-0.8l0.3,0.2c0.8,0,1.4-0.3,2.2-0.8h-0.2c-1.3,0-5,0.6-6.4,0.6
		H19c-1.8-0.2-4.7-1.6-4.7-3v-0.2c2.2,1.9,4.5,2.9,6.7,2.9h0.8c-3.2-0.2-5.9-1.6-8.3-4.2l-0.6-1.1h0.2c0-0.2,0-0.3-0.2-0.2h-0.2
		l-0.3-0.5h0.3c-0.5-0.5-0.8-0.8-0.8-1l0.5,0.2c-0.3-0.6-0.8-0.6-0.8-1.3c0-0.2,0-0.3,0.2-0.5l0.2-0.2h-0.5c-0.2,0-0.3-0.5-0.3-1.4
		v-0.5l0.3,0.8v-0.2c0-1.1-0.5-4-0.5-5.3c0-1.1,0.3-4.5,0.2-5.9c0.2-0.2,0.2-0.5,0.2-1.3h0.2v1.4l-0.2,0.2l0.2,0.3v0.3
		c0,1.3-0.2,4-0.2,5.1v1.1l0.3,0.5c0.2-1.4,0.3-2.7,0.3-3.5v-0.2l-0.2,0.2v-1l0.5,0.3v-0.2l-0.5-1H12v-1l0.5,0.5v-0.2l-0.2-0.5v-0.5
		v-0.3l0.3,0.8v-0.5c0-0.2-0.2-0.5-0.2-0.6l0.2-0.2v-0.2h-0.3c0-0.6,0.5-0.8,0.5-1.4c0-0.2-0.2-1.1-0.2-1.3v-0.2l0.2-0.5
		c0.2-0.3,0.2-0.5,0.2-0.6h0.3v-0.3l0.3,0.2v-1.1l-0.3,0.5v-0.6c0-0.5,0.2-2.1,0.2-2.6h0.2c0.5,0,0.5-0.5,0-0.5v-1.1l-0.3,0.2
		c-0.2,0-0.2-0.2-0.2-0.3v-0.3l0.3,0.3c0-0.6,0-1,0.6-0.8c0.2-0.5,0.2-1,0.2-1.4h0.3l0.5,1.6V178c0-0.2-0.2-0.6-0.2-0.8V177l0.3,0.6
		v-0.8h0.3l0.2-1.1h-0.2c0-0.3,0-0.5,0.2-0.5l0.3,0.2c0-0.2-0.2-0.5-0.3-0.6l-0.5,0.3c-0.2,0-0.2-0.2-0.2-0.3v-0.2l0.5,0.2l-0.2-0.2
		l-0.2-0.2v-0.2l0.3-0.6c0,0.6,0.2,1,0.5,1.1v-0.6l0.3,0.2c-0.2-0.5,0.2-1.4,0.2-2.1l0.3,0.3c0-0.2,0.3-1,0.3-1.4
		c-0.2-0.2-0.2-0.2-0.3-0.2c0-0.2,0.2-0.3,0.3-0.3l0.3,0.3c-0.2-0.2-0.2-0.3-0.2-0.5c-0.2,0-0.2-0.3,0-0.3v0.2
		c0.2-0.5,0.3-0.8,0.3-1l0.3,0.2c0-0.6,0.6-2.1,0.5-2.7l0.5,0.2c-0.5-0.6,0.8-2.1,0.6-2.7l0.3,0.3c-0.2-1.3,1.9-4.3,1.9-5.5H22
		c0-0.5,0.2-0.8,0.3-1.3l0.2-0.2l0.2,0.2v1.3h-0.2c-0.2,0-1.1,2.9-1.4,3.2l-0.3-0.2c0.2,0.6,0.3,1.1,0.3,1.4v0.2
		c0,0-0.2,0.6-0.2,0.8v0.2l0.2-0.2l1.1-2.6c0-0.2,0.2-0.2,0.3-0.3l0.3,0.2c-0.2-0.6,0.8-3.5,1.4-3.5v0.2c0,0.2-0.5,0.8-0.5,1
		l0.2,0.3l1.4-2.7v-0.5l0.3,0.2v-0.2c0.2-0.2,4.8-8.2,5.8-9.1h-0.3l0.3-0.2v0.2l0.2-0.2c-0.2,0-0.2-0.3,0-0.3v0.3
		c0.2-0.2,0.3-0.2,0.5-0.2l0.3,0.2l0.3-0.3l4-6.7c-0.2,0.3-0.2,0.8-0.2,1.3v0.2c0.8-0.6,2.7-2.9,3.2-3.4c0.5-0.2,1-0.8,1.8-1.9
		c-0.2-0.2,1.8-3,1.8-3.4c0-0.2,0-0.3-0.2-0.3h0.3c-0.8,0,1-1,0,0c0.3,0,0.6-0.6,1-1c-0.5,0-0.6-0.2-0.6-0.5c0-0.2,0.2-0.3,0.3-0.3
		v0.5c0.2-0.3,0.2-0.5,0.2-0.6c0,0.2,0.2,0.2,0.3,0.2v0.6c0.2,0,0.3-0.2,0.3-0.3h0.3l-0.5-0.6H45l0.3,0.5c0.5-0.5,1.4-1.9,2.1-2.4
		h0.2c0.2,0,0.5,0.2,0.6,0.3c0.2-0.2,1.6-0.5,1.8-1l1.4,0.2h-0.6c0,0.2,0,0.3,0.2,0.3h0.8L52,129h-1.1v0.2c0,0.2,0.2,0.2,0.3,0.2
		l0.5,0.2c1.1,0,1.8,0.2,1.8,0.5l-0.2,0.3l1.1,0.3c0,0.6,0,1.1,0.2,1.3l-0.3,0.3c0,0.2,0,0.2,0.2,0.2c0-0.2,0.2-0.2,0.3-0.2
		c0.3,0,0.5,0.2,0.5,0.5c-0.5,0-0.6,0.2-0.6,0.5c0.5,0,0.8,0,1.1-0.2v0.2c0,0.5-0.3,0.6-1.1,0.6c-0.5,0-0.5-1.1-1.1-1.1l-0.3,0.2
		c1.6,2.4,2.4,5.3,2.4,8.5c0,2.7-1.8,7.9-5.1,15.1s-5.9,10.7-7.7,10.7c-0.5,0-1.8-0.2-2.2-0.2h-1.3c-0.2,0.6-1.4,0.3-1.9,1
		c0.8,1,1.9,5,4,4.3c0,0.2,0,0.2,0.2,0.2l0.2-0.2h0.2l0.5-0.2h0.3c0.3,0,0.5,0.2,0.5,0.3h1v-0.2v-0.2l0.3,0.2c0,0.2,0,0.2,0.2,0.2
		v-0.6c0,0.2,0.2,0.3,0.6,0.3l-0.2,0.2h0.8c0.2,0,1.1-0.3,2.9-0.8V171c0.3,0,0.8-0.2,1.3-0.3l-0.3-0.2c0-0.6,0.2-1,0.6-0.8v0.3h0.2
		l0.6-0.6v-0.2l-0.2-0.2c0-0.4,0.4-1.1,0.6-1.4c-0.1,0.2-0.1,0.3-0.1,0.5s0.2,0.2,0.5,0l0.2-0.2c0,0,0,0.2,0.2,0.5
		c0.2,0.5,0,0.6-0.5,0.5c0.2,0.2,1.1,0.3,1.1-0.5c0-0.5-0.5-0.6-0.3-1.1l-0.5,0.3v-0.3c0-0.5,0.2-0.8,0.2-1.3c0.6,0,1,0.3,1.4,0.3
		c0.5,0,0.6-0.2,0.6-0.6c0-0.3-0.2-0.5-0.6-0.5h-0.2l-0.2,0.2h-0.2c0-0.6,1.3-1.9,1.1-2.7l0.3,0.2c-0.2-0.5,0.8-1.6,0.8-2.1h0.5v0.6
		h-0.2c0,0.3-0.3,1-1.1,2.1l0.6,0.6c-0.2,0.2-0.8,1.1-0.8,1.8h0.2c0-0.2,0.3-0.6,1.1-1.4c0-0.2,0-0.3,0.2-0.3v0.2l1.8-1.9
		c-0.2-0.5,0.8-1.9,0.8-2.1H59c0.2,0,1-3.2,1.6-3.2h0.2l0.3,0.2c-1.8,2.4-2.7,4.3-2.7,5.8l0.2,0.2c1,0,3.5-5,7.9-15.1l0.3,0.2
		c0-1.3,0.2-1.9,0.6-1.9v0.2l-0.2,0.2c0,0.2-0.2,0.8-0.2,1h0.3c0.3,0,0.5-0.6,0.3-1.9l0.3,0.2c-0.2-0.5,0.5-2.2,1-2.4l-0.2-0.2v-0.2
		l0.2-0.3c0-0.2,0.2-0.5,0.3-1.1l0.2-0.8l0.3-0.3l-0.5-0.3v-1.4l0.2-0.8c0-0.2-0.2-1.1-0.2-1.3V137c0-0.5,0.3-0.6,0.8-0.6
		c0.2,0,0.3,0.2,0.3,0.5v0.2c-0.2-0.2-0.3-0.2-0.5-0.2l0.5,1.1v-0.6c0.2,0.6-0.2,1.8,0.3,2.4c0.2-0.3,0.3-1.6,0.3-3.9l0.2-0.3h0.2
		c0.3,0,0.5,0.5,0.5,1.3l-0.3,0.2v0.3c0,0.8,0.2,1.3,0.5,1.8c0.2-0.8,0.3-1.6,0.3-2.7s-1-4-1-5.1c-0.2,0-0.2-0.3,0-0.3v-0.5l0.5,0.2
		l-1.8-3h-0.2c-0.2,0-0.2-0.3,0-0.3c-3.4-4.5-7.4-6.7-11.7-6.7h-0.2l0.2,0.2h-0.5l0.2,0.2h-0.2h-0.2c0.6,0.3-0.6,0.3,0,0
		c-0.6,0-1-0.2-1-0.5c-0.2,0.2-0.3,0.3-0.5,0.3s-0.5-0.2-0.6-0.5c-0.2-0.3-0.5-0.5-0.8-0.5v0.5c0-0.2-1,0-1.1-0.5h0.5l-0.2-0.2v-0.2
		c0.2-0.2,0.3-0.2,0.5-0.2c-0.5-0.6-2.1-0.5-2.7,0.2v-0.3h-0.3c-0.2-0.2-0.2-0.2-0.3-0.2c0.3-0.3,0-0.6-0.3-0.3
		c-0.2,0-0.2,0-0.3-0.2H50l-0.3,0.2h-0.2c0-0.3,0-0.5,0.2-0.5l-1.1-0.3c0.2,0.2,0.5,0.3,0.6,0.3l-0.3,0.2h-0.3c0,0.2-0.3,0.2-0.3,0
		l-1.4-0.5l0.2-0.2l-0.2-0.2c-0.6,0-1,0.2-1,0.6c-0.2,0-0.6-0.2-1.4-0.6c-0.2,0-0.2,0.2-0.3,0.3c0,0.2-0.2,0.2-0.3,0.2V117h-0.5v0.5
		c-0.3-0.3-0.6-0.5-1-0.5h-0.2c-0.2,0.5-1.9,1.9-2.1,1.9c-0.5,0-0.6-0.3-0.8-0.3c0,0.2,0.3,0.5,0.3,0.6c0,0.2-0.2,0.3-0.5,0.3
		c-0.2,0-0.5-0.3-0.6-0.3h-0.2c0,0.2,0.2,0.3,0.3,0.3c-0.2,0-0.2,0.3,0,0.3l0.2-0.2v0.2c0,0.5-0.3,0.8-1,1.3
		c0.2,0.2,0.2,0.3-0.2,0.3c-0.2,0-0.2,0-0.2-0.2c-0.5,0.5-0.8,0.6-1.3,0.6l-0.2-0.2l0.3-0.3l0.3-0.2v-0.2H37v-0.5
		c0.5,0,0.6,0,0.6-0.2l-0.2-0.2l-0.3-0.6c-0.8,1.1-1.4,1.6-1.9,1.4l0.2,0.2l-4.3,4.5v0.2H31v0.3h-0.2l-0.3-0.2
		c0.2,0.5,0,1.1-0.6,1.8l-0.3-0.3c-0.5,0.5-0.6,0.8-0.6,1.1v0.2l0.3-0.2v0.2l-0.3,0.3h-0.2l-0.2-0.3l-0.6,0.3l0.2,0.2l0.2,0.2v0.2
		l-0.2,0.2H28l-0.3-0.3v0.5c-0.2,0-0.3,0.2-0.3,0.3h0.2c0,1.8-3.4,5.3-3.9,6.6h-0.2l-1.1,2.2h-0.2c-0.2,0-0.2,0-0.3-0.2v0.2
		l-0.2,0.3l-0.2,0.2l-6.1,12.8l-0.6,1h-0.2l-0.6,1.6v0.3l-0.5-0.2c0.2,0.5-0.2,1.6-1.1,3.2l-3,9c-0.2,0.2-0.3,1.3-0.3,1.4l-3.2,14.9
		l-0.2,1.6v-0.5l-0.2,0.6l0.3,0.2v0.2c0,1.9-0.6,6.7-0.6,8.7v1l1.1,9c0.2,0.8,0.6,3,1.1,4.2l0.2,0.3c0.2,0.2,0.2,0.2,0.2,0.3H7.6
		c-0.2,0-0.2,0.3,0,0.3l0.2-0.2c0.2,0.6,0.3,1.1,0.3,1.3s0.8,1.4,1.3,2.1c0-0.5,0.6,0.2,0.2,0.2l1.1,1.3c0.1-0.1,0.6,0,0.2,0.2
		c0,0.2,0.2,0.3,0.3,0.5v-0.2c0.2,0.2,0.2,0.2,0.2,0.3l0.5,0.8c0.2,0,0.3,0.2,0.5,0.3l0.3,0.2h0.2l0.2-0.2c-0.2-0.2-0.3-0.3-0.8-0.5
		l-0.5-0.2c0.2-0.2,0.2-0.3,0.2-0.5l2.2,1.4c-0.2,0.2-0.3,0.2-0.5,0.2c-0.6,0-1.1-0.2-1.6-0.5c0.2,0.2,0.3,0.3,0.3,0.5l2.4,1.4
		c-0.6-0.3,0.6-0.3,0,0c0.5,0.3,1.4,0.6,2.7,1.1c0.2,0.2,0.5,0.2,1,0.3v0.3H19v-0.3h0.5l-0.3,0.2c0.2,0.2,0.5,0.3,1,0.3
		c0.3,0,0.5-0.2,0.6-0.3h0.8c0.5-0.2,0.8-0.2,1-0.2h0.3c0.5,0,0.8,0,1.3,0.2h-1.4c-0.2,0-0.3,0-0.6,0.2v0.3c-1.1,0-2.4,0-3.7,0.2
		c0.6,0.3,1.9,0.5,4,0.5v-0.2c0.2-0.2,0.2-0.2,0.2-0.3h1.8l-0.2-0.2c0.3-0.2,0.6-0.2,1.1-0.2c0,0.5,1,0.3,1.1,0.2l-1-0.5
		c1.6-0.6,2.7-1,3.4-1c0.2,0,0.2,0.2,0.3,0.5c0.3,0,0.5-0.2,0.5-0.3l-0.5-0.2l0.2-0.2c0.3,0,0.5,0,0.6,0.2c0.2,0.2,0.3,0.2,0.6,0.2
		c-0.2,0.3-1.3,0.6-3.2,1.1c-1.9,0.5-2.9,1-2.9,1.3c1.4,0,2.9-0.8,3.4-0.3l-0.2-0.3c1.4-0.6,2.7-1,3.5-1v0.5h0.6l2.2-1.1
		c0.2-0.2,0.5-0.3,0.8-0.3l0.2,0.2h0v-0.6c-0.6,0-1.9,1-2.6,1h-0.3l1.1-0.5l-0.5-0.2c1.4-0.5,4.8-2.1,5.6-3.2V215
		c0.2-0.2,0.2-0.2,0.2-0.3c0.8,0,2.4-1.6,3-1.6h0.2c0-0.2-0.3-0.3-1-0.3c0.2-0.2,0.3-0.3,0.6-0.3l0.3,0.2c0.2,0.2,0.2,0.3,0.3,0.2
		c0.6-0.2,2.6-2.1,3.2-2.1c0.2,0,0.3,0,0.5,0.2c-0.5,0.2-1.3,0.6-2.7,1.6c-1.4,1.1-2.1,1.8-2.1,2.1c0.6,0,1.9-1.4,2.7-1.4V213H44
		c0,0.5-0.8,1.1-0.6,1.6l-0.3-0.2l0.3,0.3h0.2c0.2,0,0.8-0.5,1.9-1.6l-0.2-0.2h-0.2l-0.3,0.3l-0.2-0.2c0.2,0,0.2-0.2,0.2-0.3h-0.5
		c0-0.3,0.2-0.5,0.6-0.5v0.3c0.2,0,0.6-0.3,0.8-0.3h0.2l-0.5,0.5l0.2,0.2l1-0.6l0.8-1c1.1-1.1,2.6-2.6,2.6-2.7l-0.2-0.2h0.3
		c0-0.6,1.8-2.2,2.4-2.2c0,0.2,0,0.3,0.2,0.5v0.3l0.6-0.5h-0.5c0-0.2,0-0.3,0.2-0.3l-0.3-0.2l0.2-0.2v-0.2c0-0.2-0.2-0.2-0.2-0.3
		L53,204l0.3,0.2c0.2,0,0.3-0.2,0.3-0.3l0.3,0.3l0.2,0.2l0.2-0.3l-0.2-0.2c-0.2,0-0.2-0.2-0.2-0.3h0.5v-0.2l0.3,0.2
		c-0.2-0.5,0.3-1.1,0.3-1.3h0.5V202l0.3,0.2c-0.3-0.5,1.8-2.4,2.2-2.9l0.4-0.4l0.8,0.5V199c0.5,0.5,1,0.7,1.6,0.7h0.7
		c0.3-0.2,0.5-0.3,0.7-0.2c0.2,0,0.7,0.5,1.2,0.5l0.2-0.2c0.5,0,0.7-0.2,0.7,0.3v-0.7c0.8,0,2.5-3.1,2.5-4c0.5,0,1.2-1.3,1.6-4.1
		c1-2.2,1.8-4.2,2.6-5.9c0.3-0.5,0.5-1,0.6-1.3c2.5-5.4,3.9-8.2,4.2-8.3l-0.2-0.3c0.2,0.2,0.7,0.3,1.2,0.3c0-0.3-0.3-0.5-0.8-0.5
		c0-0.8,3-1,3-1.6c0.5,0,0.8,0.2,1.3,0.3l-0.3,0.3l0.3,0.2c0.8,0,1.2-0.2,1.3-0.5c0-0.2-0.5-0.2-1.5-0.2v-0.3c0.5,0,3.8-0.8,3.8-1.2
		l0.3,1.2l0.5-0.3v0.2v0.5l-0.2,0.5c-1.5,4.8-2.3,8.2-2.8,10.4l-0.2,0.5l-3,17.7c0,0.7-0.2,2.5-0.2,3.1c0,3.8,1.2,5.8,3.3,6.3
		c0.2,0.2,0.5,0.2,1,0.2s0.8-0.2,0.8-0.3l-0.2-0.2C83.4,212,83.7,210.6,84.2,207.8z M73.2,176.3c-0.2,0.2-0.3,0.3-0.2,0.7l-1.8,2.8
		c-2.5,3.5-4.9,7.1-6.1,7.1h-0.2V185c-0.2-0.2-0.3-0.3-0.3-0.7c0.2-0.2,0.2-0.3,0.2-0.5c0.5,0,0.5-0.7,0-0.7
		c0.8-0.8,1.3-2.1,1.3-3.6v-0.2l-0.2-0.3l0.5,0.2c0-0.8,1-3.3,1.6-3.3l0.3,0.2l0.8-0.3v-0.2c0.8,0,3,0.3,4.1,0.3
		C73.3,176.1,73.3,176.1,73.2,176.3z"/>
	<path class="st0" d="M100.5,142C101.2,141.5,99.9,141.5,100.5,142L100.5,142z"/>
	<polygon class="st0" points="81.8,212.7 81.6,212.4 81.6,212.7 	"/>
	<path class="st0" d="M111.4,198.8L111.4,198.8c2.6,0,5.2-2,8.1-5.9c2.9-4.1,5.3-8.4,7.3-13.3c2-4.9,3.2-9.2,3.7-12.8v-0.1
		c0.1-0.7,0.3-1.2,0.3-1.5c-0.1,0-0.1-0.3,0-0.3v0.1c0-0.1,0.1-0.9,0.1-1.1v-1.5c-0.7-1.8-0.1-8.7-4-8.7c-0.4,0-0.9-0.1-1.3-0.3
		c0.5,0.3-0.5,0.3,0,0c-3-0.7-5-1.1-5.8-1.1h-0.3c0.1,0.1,0.4,0.3,0.8,0.3l-0.4,0.1c-0.3,0-0.5-0.1-0.7-0.3h-2.1
		c-0.4-0.1-0.7-0.3-0.9-0.3h-0.1c0.1,0.1,0.3,0.3,0.4,0.3h-0.1c-0.1,0-0.9-0.1-1.3-0.1c-2,0-2.5,2.9-3.7,4.1l-4.2,7.1l-4.9,10
		c-1.7,3.8-2.6,7.8-2.6,12c0,4.4,2,9.2,5.7,11.3c0.3,0.3,0.5,0.4,0.7,0.4l0.1-0.1h0.1c0.5,0,2,1.1,2.5,1.1c0.1-0.1,0.1-0.1,0.1-0.3
		h0.1h0.4l0.4,0.1c-0.1,0.3-0.1,0.4,0.3,0.4l0.5-0.5c-0.5,0-0.9,0-1.1-0.1c0.4-0.1,0.7-0.3,0.8-0.3s0.5,0.3,0.7,0.3
		c0.4,0,0.5-0.1,0.5-0.3v-0.1l-0.1-0.1h0.1c0.1,0,0.3,0,0.4,0.1h0.3c-0.7,0.3-0.9,0.5-1.1,0.8h0.1c0.8,0,1.2-0.3,1.2-0.7
		c0.1,0,0.1,0,0.1,0.1l0.1,0.3c-0.4,0.4-1.2,0.5-2.4,0.5C110.4,198.8,110.8,198.8,111.4,198.8z M108.3,191.3l-0.1-0.3v-0.3
		c0-6.3,2.4-11.9,6.5-19.1c2.1-3.7,3.6-6.5,4.4-8.3h0.1c0.1,0,0.3,0.3,0.3,0.7h0.5l-0.7-0.8l0.5-0.4h0.1l0.5,0.8c0-0.9,0.5,0,0.1,0
		l0.1,0.1l-0.1,0.1c0.1,0,0.4,0.1,0.5,0.4h-0.7c0,0.1,0.3,0.3,0.7,0.4v0.5c0,2.5-1.6,7.4-4.6,14.9
		C113.5,187.6,110.8,191.3,108.3,191.3z"/>
	<path class="st0" d="M138.9,193.4h0.1c1.6,0,5.5-0.9,5.5-2.1v-0.4c1.6,0,4.7-7.6,5.5-9.2c1.8-4,3.7-8.7,5.5-14.1
		c0.4-1.6,0.7-2.9,0.7-4.1c0-2.2-2.2-3.4-6.9-3.4c-0.9,0-3.2,0.3-4.1,0.3h-0.1c0.5-0.5,2.4-2.1,2.9-2.8c-0.1,0-2.6-0.4-3.3-0.8h-0.3
		c-0.1,0-1.8,0.3-2,0.4c-2.8,1.7-5.9,6.2-9.5,13.4c-0.4,1.6-1.7,4.7-2.4,7c-0.5,2.2-0.4,4.7-0.3,6.5c1.1,1.2,2,6.1,3.6,7.6
		c0.4-0.1,0.5,0,0.5,0.3h-0.1l0.5,0.4c0-0.5,0.5,0,0.1,0c0.4,0.1,0.7,0.3,0.8,0.3l0.1-0.3v0.4c0.1,0.1,0.9,0.1,1.1,0.1l0.1-0.1v0.3
		c0.3,0,0.5,0.1,0.7,0.3V193c0.1,0,0.7,0.1,0.8,0.1h0.1h0.1c0.1-0.1,0.1-0.1,0.3-0.1v0.1L138.9,193.4z M137.2,188.3l-0.5-1.8v-2.2
		c0-4.4,0.7-8.8,2.1-13.3c-0.3-0.8,0.3-2.5,1.7-5s2.6-3.8,3.4-3.8c1.6,0,3.2,1.7,3.2,3.3c0,1.2-1.2,4.9-3.4,10.9
		c-0.1,0.1-0.5,1.2-1.3,3.4c-0.7,2.1-1.6,4.1-2.5,5.9C138.9,187.4,138,188.3,137.2,188.3z"/>
	<path class="st0" d="M159.1,165.1L159,165C159,165.1,159,165.1,159.1,165.1z"/>
	<path class="st0" d="M194.1,151c-0.3,0-0.4,0.1-0.4,0.2c0,0.8,0.2,1.4,0.5,1.8l0.2-0.2c0.2,0.1,0.8,0.5,1.8,1.4
		c1,0.8,1.9,1.2,2.5,1.2c2.9,0,5.6-2.4,9.3-7.3l3-4V143l0.5-0.4l-0.5-0.7c0.1,0,0.1,0,0.1-0.1l0.1-0.1c0-0.1-1.4-1.7-1.5-1.7
		l0.2-0.2c-0.1-0.2-0.7-0.8-2-1.9c0,0.3-0.4-0.1-0.1-0.1l-0.5-0.3c0,0.1,0,0.1-0.1,0.1c-0.2,0-0.2-0.1-0.1-0.2l-0.3-0.3l0.2-0.1
		c-0.1,0-0.3-0.3-0.6-0.4l-0.2-0.2l0.3,0.4v0.1c-0.3-0.1-1.4-1-1.9-1.4c-0.3,0.1-0.9-0.4-1.2-0.4c0,0.1,0.1,0.3,0.2,0.6l-0.1,0.1
		h-0.1l-0.5-0.2l-0.5-0.1h-0.1l-0.1,0.1v0.1l0.1,0.1h-0.1c-0.2,0-0.5-0.2-0.9-0.6c0,0.1-0.1,0.2-0.2,0.2c-0.1,0-0.3-0.1-0.4-0.1
		l0.5-0.3c-0.3-0.3-0.7-0.5-1.1-0.5h-0.5l-0.1,0.1c-0.1,0-0.5-0.1-0.6-0.1v-0.1l1.8-0.6l0.2-0.2c-0.1-0.1-0.2-0.2-0.4-0.2h-0.1
		l0.2,0.2c-1.7-0.2-3.9,0.1-6.9,1l-8.5,2.9l-6.3,2.8c-1.2,0.9-4.9,2.7-6.2,3.8l-7.4,6c-2.7,2.2-4.5,4.5-5.7,7.2c0.1,0,0.1,0.2,0,0.2
		v-0.1c-0.1,0.1-0.2,0.3-0.2,0.4c0.3,0-0.1,0.6-0.1,0.2c-0.4,1.2-0.7,2.6-0.9,3.9v0.2c0,1.1,0.2,2,0.5,2.4l0.1-0.1
		c-0.1,0.2-0.1,0.3-0.1,0.3c0.2,0.1,0.3,0.1,0.3,0.2v0.1l-0.1,0.1h0.2l0,0c-0.1-0.2,0.5-0.2,0.1,0.1l0.3,0.4c-0.1,0-0.2,0.4,0.1,0.5
		c0.1,0.1,0.2,0.2,0.2,0.3l0.2-0.2c0,0.3,0.9,0.7,1,1.2l0.1,0.1c0.1,0,0.1,0,0.2,0.1c0.1,0,0.1,0,0.1-0.1s0-0.2-0.1-0.2
		c0.1-0.1,0.1-0.1,0.2-0.1h0.1c0.1,0,0.3,0.2,0.5,0.5c-0.5,0-0.8,0-1,0.1c0.2,0.3,0.5,0.4,0.9,0.4c0,0.9,2.1,0.9,2.6,1.4h-0.2
		c-0.1,0-0.7-0.1-0.8-0.1h-0.1c0.5,0.8,2.3,1.2,5.3,1.2h0.2l-0.5-0.2l0.1-0.1h0.1c0.1,0,0.2,0,0.5,0.1h0.4c0.1,0.1,0.2,0.1,0.4,0.1
		v-0.2c0.1,0,0.3,0.1,0.6,0.3l0.5,0.2h0.1c-0.1,0-0.1-0.1-0.1-0.2c0.3,0,0.4-0.1,0.5-0.2v0.4h0.4c-0.1,0-0.2,0-0.2-0.1v-0.1
		c0.1-0.1,0.4-0.1,0.9-0.1c-0.4-0.2,0.4-0.2,0,0h0.9h1h0.2c0.1,0.1,0.2,0.1,0.3,0.1s0.2-0.2,0.5-0.2c0.1,0,0.6,0.2,0.9,0.2
		c0,0,0.4-0.1,0.5-0.1v-0.1c-0.1,0-0.1-0.1-0.1-0.2l0.5,0.3c0,0.1,0.2,0.1,0.2,0c0.3,0.1,0.6,0.1,0.9,0.1c0.1,0,0.8-0.2,1.1-0.2
		l0.2,0.1h3.7c0-0.1-0.1-0.2-0.2-0.3c0.3,0,0.6,0,0.5,0.3h2.3v0.2l-4.9,2.8l-9,6.2c-0.2,0.3-1.4,1.4-3.8,3.5l-3.7,3.4
		c-0.5,0-2.1,2-2.1,2.4h0.2c0.3,0,0.8-0.4,1.8-1.3c0,0.1,0.6,0.6,0.7,0.6l0.2-0.1c0,0,0,0,0.1,0l0.1,0.1c0.1,0.2,0.1,0.3,0.1,0.4
		c0,0.3-0.1,0.4-0.3,0.4v-0.4c0,0-0.1,0.1-0.2,0.2c0.1,0.3,0,0.5-0.1,0.5l-0.2-0.1l-0.1-0.1l0.1-0.2v-0.3c-0.1,0-0.4,0.2-0.8,0.2
		v0.2c0.4,0,0.6,0.1,0.6,0.3c0,0.1-0.1,0.1-0.2,0.1l-0.1,0.1l0.2,0.2l-0.1,0.2c-0.1,0-0.3-0.2-0.4-0.2c0-0.1-0.1-0.1-0.2-0.1
		L164,190c0.1,0.1,0.4-0.1,0.4,0.2v0.4c0,0.3-0.1,0.5-0.1,0.6c0,0.4,0.6,1.4,0.6,1.9c-0.1,0-0.2,0.1-0.2,0.2h-0.1
		c0,0.1,0,0.1,0.1,0.1l0.1,0.1l0.1-0.1c0.3,0,0.4,0.2,0.4,0.7l-0.2,0.2v0.2l0.3,0.6h0.2c0-0.1-0.1-0.4-0.1-0.5h0.2l0.3,1.4l0.2,0.3
		H166c0,0.5,0.4,0.9,1.2,1.3l-0.1-0.2h0.1c0.1,0,0.3,0.1,0.5,0.3l-0.2,0.1c2.1,1.1,4.3,1.7,6.7,1.7c1.5,0,3.7-0.7,6.6-2.2l-2.2,0.9
		c-1.1,0.5-2,0.8-2.5,0.8c0-0.1-0.1-0.1-0.1-0.2h-0.1l-0.3,0.3c-0.4,0-0.5-0.4-0.6-0.5v0.1c0,0.2-0.7,0.3-2.2,0.3
		c-0.1,0-0.7-0.2-0.8-0.2c0,0.1-0.1,0.1-0.1,0.2h0.1c-0.3,0-0.5-0.3-0.5-0.8v-0.1l0.2,0.3l0.2-0.1l0.2-0.1h0.1l0.1,0.2
		c0.2,0,0.3-0.1,0.3-0.4c0-0.3-0.2-0.3-0.2-0.6c1.1,0,1.7,0.3,1.7,0.8v0.1c-0.4-0.5-1.3-0.6-1.3,0.2c0.1,0,0.7-0.3,0.8-0.2
		c0.3,0.1,0.4,0.2,0.3,0.3h0.2h0.2l0.1-0.2c0.1-0.3,0.3-0.5,0.4-0.5c0.3,0,0.5,0.6,0.6,0.6v-0.1l-0.1-0.2c0-0.1,0.1-0.1,0.4-0.1h0.2
		h0.2l0.1,0.1l0.3-0.3c0.1,0,0.2,0.1,0.3,0.3c0.1-0.1,0.1-0.1,0.1-0.2c0.1-0.1,0.1-0.1,0-0.1h0.3l0.1,0.1c0.6,0,1.2-0.1,1.9-0.3
		c1.3-0.3,4.4-1.9,5.6-2.6h0.2l0.4-0.7h0.1c0.1,0.1,0.1,0.1,0.2,0.1c0.2,0,0.3-0.1,0.3-0.3l0.4,0.2v-0.1c0-0.1-0.1-0.2-0.2-0.2
		c0.1,0,0.3,0.1,0.6,0.1V194c0.1,0,0.4,0.1,0.8,0.2h0.2c0.1,0,1.2-0.7,1.2-0.8c0-0.2,0-0.4-0.1-0.5c-0.3,0.5-0.8,0.4-1.1,0.7
		l-0.1-0.2h-0.1c-0.3,0-0.3,0.4-0.4,0.4l-0.4-0.3l-0.4,0.2h-0.1c0-0.1,0.4-0.3,1.3-0.7c0.9-0.3,1.4-0.5,1.5-0.5h0.1l-0.1,0.1v0.3
		c0.4,0,0.1-0.7,0.4-0.7c0,0.1,0.1,0.1,0.2,0.1c0.5,0,2.1-1.7,2.8-1.7l0.2,0.1v-0.3l0.2,0.1l2.8-2.1l1.8-1.8l2.2-2.6
		c0.3-0.5,0.8-1.3,1.3-2.5c0.5-1.1,0.8-2.3,0.8-3.3v-0.6c-0.3-0.1-0.3-0.5,0.1-0.5c-0.1,0.3-0.1,0.5,0.2,0.8v-1.1
		c-0.3-0.2-0.4-0.5-0.4-0.8s0.1-0.4,0.2-0.4l0.1,0.2v-0.1c0-0.2-0.1-0.5-0.2-0.9v0.5c0,0.1-0.1,0.2-0.2,0.2c0-0.4-0.1-0.6-0.4-0.6
		v-0.1l0.3-0.3c0-0.1,0-0.1,0-0.1h0.1c-0.1,0-5.2-5.7-5.3-5.8l-1.1-0.7v-0.2c0-1.1,6.2-4,7.1-5.2h-0.2l-8.3,4.2h-0.3
		c-1.3,0-3.6-0.4-6.6-1.2s-5.2-1.2-6.4-1.3h-13.3c-1.7,0-2.5-0.4-2.5-1.1v-0.4l0.2,0.1v-0.3l0.1-0.5c0,0.1,0,0.2-0.1,0.3V162
		c0-0.5,0.3-1.3,0.3-1.4h0.1c0,0.5,0,0.7,0.1,0.8c0.3-0.8,2.3-3.5,3-3.5l0.2,0.1v-0.2c0-0.1,0-0.2-0.1-0.3c0.1,0,0.3-0.3,0.4-0.3
		h0.1l0.2,0.1v-0.1l0.2,0.1v-0.1l-0.1-0.3v-0.2l0.1-0.1l0.3,0.4c0.4-0.3,1.2-1.4,1.8-1.9V155c0-0.2-0.1-0.3-0.2-0.2
		c0-0.3,0.7-0.2,0.7-0.3c-0.1,0.1,0,0.2,0.2,0.3c0.1,0,0.2,0,0.3,0.1l-0.1-0.2c-0.1-0.1-0.1-0.2-0.1-0.3v-0.1l0.8-0.8
		c0.1,0,0.2-0.1,0.4-0.4c0.1-0.2,0.2-0.3,0.2-0.3l0.3,0.4c-0.1-0.2,0.1-0.5,0.4-0.8l0.3-0.3l0.3,0.1c-0.1-0.1,0-0.3,0.1-0.3h0.1
		l0.2,0.1c0-0.1,0-0.1-0.1-0.2v-0.1l0.1-0.1c0,0.1,0.2,0.1,0.2,0.2c-0.1-0.4,0.7-1.1,1.1-1.1c0.1,0,0.1,0,0.2,0.1l0.1,0.1
		c0.4,0,2.5-1.3,2.8-1.8c8-4.6,14.4-7.4,19.3-8.4c0.8,0.1,2.9-0.4,3.4-0.4h0.4c0.3,0.1,0.4,0.1,0.5,0.1s0.2,0.1,0.2,0.2
		c0,0.9-0.5,1.9-1.5,2.9C198.6,147.1,196,149.5,194.1,151z M188.1,172.8v-0.1c1-1,1.8-1.5,2.2-1.5c3,0,6,2.1,6,5
		c0,3.3-2.7,6.6-8.2,9.8c-5.4,3.2-9.6,4.8-12.8,4.8v0.2c-0.6,0-0.9,0-1,0.1c-0.1,0-0.2,0-0.2,0.1h-1.3c-0.1,0-0.2,0-0.4-0.1v-0.8
		c0,0.1-0.1,0.3-0.3,0.8c-0.3-0.1-0.4-0.2-0.4-0.5c0-1.1,2-2.9,2.1-3.6c2.3-2.1,4.3-4.3,6.2-6.7c3.2-2.8,6-5.1,8.4-6.6l0.4-0.4
		C188.6,173,188.1,173.1,188.1,172.8z"/>
	<path class="st0" d="M174.7,170.7C174.3,170.9,175.1,170.9,174.7,170.7L174.7,170.7z"/>
	<path class="st0" d="M185.6,195.7h0.1l0.2,0.1l-0.1-0.2l0.2-0.1c0.1,0,0.1,0,0.2,0.1v-0.3c0.4,0,1.4-0.6,1.4-1v-0.1
		c-0.6,0.5-1.5,1-2.9,1.7C185,195.7,185.3,195.7,185.6,195.7z"/>
	<polygon class="st0" points="179.3,198 179.2,197.9 179.2,198 	"/>
	<path class="st0" d="M241.5,164.7c-0.3,0.6-0.5,1.1-0.9,1.5L231,177c-5,5.5-9.3,8.2-13,8.2c-3.4,0-5.2-2.7-5.2-6.2
		c0-2.2,0.3-3.3,0.6-3.6l0.3-0.1c1.7,0.9,3.3,1.4,5,1.4c3.2,0,6.8-2.9,10.5-8.7c3.7-5.7,5.6-10.3,5.6-13.5s-3.1-6-6.5-6l1.5,0.9
		l0.1,0.1c-1.4-0.4-4.6-2.2-6-2.2l-0.4-0.4v0.3c-0.9-0.4-1.8,0.5-2.8,1l-3.1,3.3l-0.8,0.8c-1.4,1.7-4.2,5-4.2,6.6
		c-0.3,0-0.4,0-0.4,0.1l-4,7.4c-0.4-0.1-0.4,0.4-0.5,0.4v1.1c-1.9,4.5-2.9,7.3-2.9,8.4l0.1,0.1l0.1,0.3l-0.1,0.3l-0.1-0.4l0.1,1.1
		v-0.5l0.3,1.3h-0.1c-0.1,0-0.3-0.6-0.4-0.6v1.7l0.1,0.3l0.1,0.1l0.1,0.1h0l-0.1,0.1c0,0.4,0.5,1.7,0.5,1.8
		c-0.1-0.1-0.1-0.1-0.1-0.3l-0.3-0.5l-0.1-0.4v0.3c0,0.9,0.5,2.4,1.4,4.5c1,1.9,2,2.9,2.9,2.9h0.1l-0.6-0.6c0.5,0.1,1,1.1,1.4,1.3
		l-0.4-0.4v-0.1c0.6,0,1.4,1.3,1.9,1.3l0.1-0.3c0,0.4,0.4,0.5,1.1,0.5l0.3-0.1h0.3l-0.1,0.1v0.1c0,0.4,2.3,0.4,2.4,0.8v-0.5l0.8,0.4
		l-0.3,0.1l0.6,0.3l0.1-0.1l0.3,0.1l0.4-0.1h0.4l0.5,0.3c0-0.1,0-0.3,0.1-0.3l0.3,0.1h0.4l-0.3-0.1c0.1,0,0.1,0,0.3-0.1h0.1h0.1
		c-0.1,0.4-0.6,0.6-0.6,0.8c0.8,0,0.8-0.6,1.5-0.6c0,0.1-0.3,0.3-0.6,0.3c0,0.4,0.1,0.5,0.4,0.5l0.5,0.1h0.5c2.3,0,4.3-0.6,6.2-1.8
		l4.2-4l1.7-2.2l2.3-5c1.1-2.5,2-4.5,2.8-5.7v-0.3c0.5,0,1.1-1.3,1.9-3.7c0.9-2.5,1.3-4.2,1.3-4.8h-0.1V164.7z M215.2,169.9
		c0.6-1.9,2.8-4.7,5.4-7.8l2.2-2.5l0.4-0.4c-0.6,0,0.8-0.8,0,0l3.1-3.1c1.9-1.1,1.9-1.1,1.9-0.3c0,1.7-1.8,4.5-5.5,8.4
		c-3.6,4-6,5.9-7.4,5.9L215.2,169.9L215.2,169.9z"/>
</g>
</svg>
