<svg xmlns="http://www.w3.org/2000/svg" width="1371.93" height="802.775" viewBox="0 0 1371.93 802.775">
  <g id="Group_327" data-name="Group 327" transform="translate(-92.073 -510.43)">
    <path id="Path_482" data-name="Path 482" d="M-652.477-224.9c-.705,2.115-7.755,16.215-9.87,19.035s-7.05,14.1-7.755,19.035c-3.525,7.755-6.345,21.15-6.345,30.315,0,20.445,7.755,33.84,22.56,40.185l-2.82,1.41c2.115,3.525,11.985,4.23,14.1,7.05a25.344,25.344,0,0,0-7.755-1.41h-2.115l8.46,5.64,1.41,1.41h-2.82c5.64,3.525,20.445,6.345,25.38,9.165h-4.23q5.287,2.115,38.07,2.115a18.938,18.938,0,0,0,9.165,2.82h.705l-2.82-2.82c1.41.7,6.345,1.41,14.1,1.41q14.8,0,44.415-4.23C-500.9-96.585-486.1-98-475.522-98c25.38-.7,45.825,1.41,50.055,29.61,0,21.855-16.215,44.415-48.645,68.385q-47.588,35.955-80.37,35.955-5.288,0-10.575-4.23v.7c-7.05,0-10.575,0-11.28-.7,2.115,2.115,2.115,8.46,0,8.46H-598.9c.7.7,1.41.7,1.41,1.41a42.617,42.617,0,0,0-13.4,0h-.7l-8.46-4.23v1.41c-4.935-.705-9.165-7.755-11.28-9.87l5.64,11.28V41.6c-5.64-4.935-10.575-23.97-14.1-26.79q2.115,4.23-2.115,4.23c-4.23,0-7.05-5.64-9.165-16.92h-.7c-.705,0-2.82,2.82-4.935,2.82-1.41,0-3.525-2.115-5.64-5.64v2.82c0,7.05,2.82,17.625,8.46,32.43,2.115.705,4.23,9.165,7.05,9.165a4.143,4.143,0,0,1-1.41,3.525c4.935,3.525,13.4,14.805,16.92,18.33l-1.41,1.41c2.82,2.82,10.575,8.46,12.69,11.28v-1.41l-4.23-4.23h.7c2.82,0,9.165,10.575,11.985,11.28l-2.82-2.82h.7c4.935,0,8.46,2.115,10.575,5.64a187.581,187.581,0,0,0,21.15,1.41c11.28,0,16.92-.705,16.92-1.41V83.9a4.143,4.143,0,0,0,3.525,1.41c10.575,0,22.56-3.525,34.545-11.28l-2.115-1.41c3.525.705,7.05-4.935,11.985-2.82l-1.41-1.41v-1.41a23.4,23.4,0,0,1,11.28-3.525v-.7l8.46-4.23,1.41-1.41c2.115,0,2.82.705,2.82,1.41-.7-.7,4.23-4.23,13.395-10.575s14.805-9.87,15.51-9.87c0-.705,7.05-5.64,7.755-4.935,26.085-19.74,40.185-29.61,57.81-55.695,9.165-13.395,14.1-25.38,14.1-37.365v-2.82l-2.82-1.41v1.41l-4.23-1.41,1.41-1.41-1.41-1.41h2.82c-3.525-4.935-4.935-11.985-4.935-19.74h-.7c0-.7,1.41-3.525,1.41-4.23h-2.115c0-4.935-4.23-8.46-4.935-11.28-20.445-27.5-62.745-40.89-125.49-40.89-9.165,0-22.56.7-40.89,1.41s-31.725,1.41-40.89,1.41h-11.28a6.865,6.865,0,0,1-5.64-7.05v-1.41l2.82,1.41c2.115-3.525,7.755-17.625,12.69-25.38l1.41-2.82-2.115-2.115c.705.705,2.115.705,3.525.705l1.41-2.82v-1.41l2.82-2.82-.705-1.41h2.115v-3.525c5.64,0,16.92-16.92,19.74-19.035l2.82,2.82,8.46-8.46a3.663,3.663,0,0,0-2.82-1.41v-2.82l4.23,2.82,29.61-25.38,5.64-4.23c.7,0,.7-.705,1.41-1.41l-.705-2.115a2.59,2.59,0,0,0,2.115.705l2.82-1.41,71.91-43.71c19.74-11.985,51.465-24.675,94.47-38.07-2.115-.7-3.525-7.755-4.23-8.46l-15.51-15.51c-2.115,1.41-19.74-19.74-21.15-21.15l-1.41,1.41c-.705-2.115-3.525-4.935-7.05-7.05v1.41c-2.115-.705-14.1-9.87-16.92-9.87-12.69,0-38.775,11.985-77.55,35.955-38.775,23.265-74.73,48.645-107.16,76.14C-644.722-250.275-658.117-232.65-652.477-224.9ZM-379.642-67.68c1.41,4.935,2.115,7.755,2.115,9.87,5.64,11.28,11.985,19.035,19.74,23.265,0-.705,0-1.41.705-1.41v1.41a21.762,21.762,0,0,0,7.05,3.525c-2.82,1.41,2.82,1.41,0,0l6.345,2.115c0,2.115,7.05,5.64,9.87,5.64l.705-.705h1.41c1.41,0,2.115.705,2.115,1.41h-.705c-.7,0-.7,0-1.41-.7,0,2.115.7,2.82,1.41,2.82h.705c0-.7.7-.7,1.41-1.41.7.7,1.41,1.41,1.41,2.115.7,0,9.165.7,9.87.7h1.41l-.705-.7c4.935,0,10.575-1.41,14.1-1.41l-.7-1.41a18.938,18.938,0,0,0,9.165-2.82h.705l.7,1.41c.7,0,.7-.7.7-2.115h2.115l-1.41.705h1.41c2.82,0,4.935-1.41,5.64-3.525h-2.82q6.345-6.345,10.575-6.345l.705.705.7.7c-1.41,0-2.82.705-4.935,2.82l-.7.7c2.82,0,9.87-4.23,9.87-7.05h2.115l4.935-4.23c8.46-7.755,17.625-18.33,26.79-31.02.7-4.935,6.345-13.4,16.215-24.675-2.115-4.935,2.82-13.4,14.1-26.085,11.985-13.4,17.625-21.855,17.625-26.085h-.705c-4.935,4.935-13.4,11.985-26.79,21.15q-19.035,12.69-25.38,21.15l-14.805,11.28-19.74,15.51c-4.935,3.525-11.28,7.755-19.74,12.69-16.215,10.575-30.315,15.51-43.71,15.51-2.82,0-4.23-4.935-4.23-14.1,0-14.805,1.41-21.855,3.525-21.855h.705c0-.705,0-.705.7-1.41.705,0,.705,1.41,0,1.41l1.41.705h.7c-2.82-1.41,2.82-1.41,0,0a7.444,7.444,0,0,0,3.525,1.41c-.705,0-.705-1.41,0-1.41v1.41l4.23,2.115c0-2.82,2.82-1.41.705.705,2.82.705,4.935,1.41,7.05,1.41,13.4,0,26.79-7.755,41.6-23.265v-1.41l-.7-.705c11.985,8.46,46.53-66.27,45.12-85.305,0-10.575-3.525-19.035-11.28-26.79,0,.7-2.115.7-2.115,0h2.115c-9.165-9.165-21.15-14.1-35.955-14.1v1.41h-11.28l-.7-1.41c2.115.7,2.82.7,2.82-1.41l-.7-.705c-2.82,0-8.46,3.525-9.165,3.525a5.385,5.385,0,0,1-3.525-1.41c3.525,0,5.64-.705,5.64-2.115H-302.8a5.329,5.329,0,0,1-2.82.705c-23.97,19.74-45.12,49.35-62.745,88.125A155.038,155.038,0,0,1-383.872-99.4v16.92l4.23,14.805c0-.705,0-.705.7-.705v.705Zm93.765-121.965c3.525-3.525,5.64-4.935,7.755-4.935,5.64,0-1.41,11.28-1.41,17.625,0,2.115,0,2.82.705,3.525l-1.41-.7c-5.64,12.69-20.445,31.725-44.415,56.4-2.82,2.82-7.755,4.935-9.87,7.05l-.705-.705q0-6.345,6.345-19.035a90.193,90.193,0,0,0,7.755-16.215l12.69-19.74Zm135.36-88.125c0,.7.7,2.82.7,3.525,0,4.23-2.115,8.46-5.64,11.985l-35.955,75.435c-8.46,23.265-13.395,36.66-15.51,40.185l-19.74,58.515q-3.172,17.978-4.23,19.035c-.705.7-2.115,11.985-2.115,12.69v1.41l-.7,1.41v27.495c0,20.445,11.985,35.955,35.955,47.94v.705h.705l8.46,3.525-1.41-1.41,2.82.7a1.516,1.516,0,0,0-1.41,1.41c8.46,0,14.1.705,17.625,2.115h-7.755c6.345.7,10.575,1.41,12.69,1.41,9.165,0,31.725-9.165,35.25-14.805l-.705-1.41c-.705-.7,0-.7,1.41-1.41,2.82,0,4.935-6.345,7.05-7.05l36.66-31.725L-41.948-74.73h-1.41c-3.525,2.115-15.51,8.46-35.955,17.625s-31.02,15.51-33.135,19.035l-46.53,22.56c-7.755,3.525-12.69,4.935-14.805,4.935-2.82,0-4.23-6.345-4.23-18.33,0-10.575,3.525-24.675,11.28-43.71s11.28-32.43,11.28-41.6h1.41c0-1.41-.705-2.115-1.41-2.115h2.115l-.705-1.41-1.41-2.115c4.935,1.41,4.23-7.05,5.64-8.46l1.41.705-.7-2.115v-.705l.7-.705a2.59,2.59,0,0,0,2.115.705,5.96,5.96,0,0,1-1.41-4.23v-2.82l2.115.7c-.705-2.82,4.23-9.165,4.23-11.28l-.705-1.41c5.64-9.87,8.46-16.215,8.46-19.74h.705c0-8.46,4.935-22.56,15.51-41.6s15.51-33.84,15.51-43.71v-2.115a40.459,40.459,0,0,0-.705-8.46l-4.935-4.23-22.56-10.575,2.82,2.82c-2.115-.7-5.64-4.935-6.345-4.935q-3.172,0-2.115,2.115l-2.82-.7,2.115-2.115h-5.64l.705-.705h-.705C-147.7-283.41-150.517-281.295-150.517-277.77ZM-77.9-67.68c1.41,4.935,2.115,7.755,2.115,9.87,5.64,11.28,11.985,19.035,19.74,23.265,0-.705,0-1.41.705-1.41v1.41a21.762,21.762,0,0,0,7.05,3.525c-2.82,1.41,2.82,1.41,0,0l6.345,2.115c0,2.115,7.05,5.64,9.87,5.64l.7-.705h1.41c1.41,0,2.115.705,2.115,1.41h-.705c-.7,0-.7,0-1.41-.7,0,2.115.705,2.82,1.41,2.82h.705c0-.7.705-.7,1.41-1.41.7.7,1.41,1.41,1.41,2.115.705,0,9.165.7,9.87.7h1.41l-.705-.7c4.935,0,10.575-1.41,14.1-1.41l-.7-1.41a18.938,18.938,0,0,0,9.165-2.82h.7l.705,1.41c.705,0,.705-.7.705-2.115h2.115l-1.41.705h1.41c2.82,0,4.935-1.41,5.64-3.525h-2.82Q21.5-35.25,25.732-35.25l.705.705.705.7c-1.41,0-2.82.705-4.935,2.82l-.705.7c2.82,0,9.87-4.23,9.87-7.05h2.115l4.935-4.23c8.46-7.755,17.625-18.33,26.79-31.02.7-4.935,6.345-13.4,16.215-24.675-2.115-4.935,2.82-13.4,14.1-26.085,11.985-13.4,17.625-21.855,17.625-26.085h-.705c-4.935,4.935-13.4,11.985-26.79,21.15q-19.035,12.69-25.38,21.15L45.472-95.88,25.732-80.37c-4.935,3.525-11.28,7.755-19.74,12.69C-10.223-57.1-24.323-52.17-37.718-52.17c-2.82,0-4.23-4.935-4.23-14.1,0-14.805,1.41-21.855,3.525-21.855h.705c0-.705,0-.705.705-1.41.7,0,.7,1.41,0,1.41l1.41.705h.705c-2.82-1.41,2.82-1.41,0,0a7.444,7.444,0,0,0,3.525,1.41c-.7,0-.7-1.41,0-1.41v1.41l4.23,2.115c0-2.82,2.82-1.41.705.705,2.82.705,4.935,1.41,7.05,1.41,13.395,0,26.79-7.755,41.6-23.265v-1.41l-.705-.705c11.985,8.46,46.53-66.27,45.12-85.305,0-10.575-3.525-19.035-11.28-26.79,0,.7-2.115.7-2.115,0h2.115c-9.165-9.165-21.15-14.1-35.955-14.1v1.41H8.107l-.705-1.41c2.115.7,2.82.7,2.82-1.41l-.705-.705c-2.82,0-8.46,3.525-9.165,3.525a5.385,5.385,0,0,1-3.525-1.41c3.525,0,5.64-.705,5.64-2.115H-1.058a5.329,5.329,0,0,1-2.82.705c-23.97,19.74-45.12,49.35-62.745,88.125A155.038,155.038,0,0,1-82.133-99.4v16.92L-77.9-67.68c0-.705,0-.705.7-.705v.705ZM15.862-189.645c3.525-3.525,5.64-4.935,7.755-4.935,5.64,0-1.41,11.28-1.41,17.625,0,2.115,0,2.82.705,3.525l-1.41-.7c-5.64,12.69-20.445,31.725-44.415,56.4-2.82,2.82-7.755,4.935-9.87,7.05l-.7-.705q0-6.345,6.345-19.035a90.194,90.194,0,0,0,7.755-16.215L-6.7-166.38Zm164.97,169.2c-2.82,1.41,2.82,1.41,0,0l.705-.7c.7-.7.7-.7,1.41-.7v1.41h.7c0-2.82.7-4.23,2.115-4.935v2.115l.705-.705h1.41v-2.82l.7-.705.705.705c4.23,0,2.82-4.935,5.64-7.755-.705,0,3.525,4.935,3.525,2.115l-.7-.7c0-.705,0-.705-.705-1.41l4.935-4.935c-.705-.705-.705-1.41.705-1.41h2.82a4.239,4.239,0,0,1-.705-2.82c0-3.525,12.69-12.69,12.69-16.215.705,0,.705,0,1.41-.705l21.15-30.315c12.69-18.33,19.035-27.5,19.035-28.2s0-.705-.7-1.41l.7-.705,1.41.705.7-1.41v-.705l-.7-.705c5.64,0,14.1-12.69,17.625-19.035l2.115-3.525c0-.705,0-.705.705-1.41v-1.41l-3.525,4.23-93.765,74.73c-24.675,19.035-43.71,28.9-55.7,28.9h-2.115l-5.64-5.64H119.5c0-2.115.705-3.525.705-5.64,0-3.525-2.82-11.28-2.82-16.215h.705c0-2.82.705-4.935,1.41-5.64v2.115c0-2.115,2.115-11.985,1.41-14.805l2.115.705v-4.23c0,.705.705,1.41,1.41,2.115-.705-2.115,1.41-4.935,1.41-5.64v-.705c-.705.705-.705.705-.705,1.41h-.705l-1.41-.705h-.705c0-2.115.705-3.525,2.82-3.525,0-2.82,2.82-3.525,2.82-5.64,5.64-19.035,16.215-45.825,31.02-81.075a13.126,13.126,0,0,0,2.82-7.755c4.935-9.165,9.165-14.8,14.1-18.33h.705c2.115,0,3.525,2.115,4.23,2.115,0,2.82,2.115,9.87,2.115,13.395,0,24.675-5.64,37.365-16.215,38.775,3.525,3.525,14.805,8.46,16.92,11.28l.7-1.41h13.4c-2.82-1.41,2.82-1.41,0,0h.7l1.41-.705c.705-.705,2.115-.705,3.525,0l-.705-.705a16.647,16.647,0,0,0,6.345-4.23l1.41.705-.705-1.41.705-1.41h.705c.705,0,.705.705.705,1.41.705,0,.705,0,.705-.705l.705-.705h-.705c2.82,0,5.64-11.28,4.935-14.1l1.41.705c0-.705-.705-2.115-1.41-4.23l1.41.705c4.935-7.05,7.05-19.035,7.05-35.955q0-6.345-2.115-6.345c0-6.345-2.115-11.985-7.05-16.215h.705l2.115.7h1.41c-.705-2.115-7.755-4.935-8.46-7.755l1.41-1.41-1.41-1.41h1.41l-2.115-1.41c0,.705.705.705.705,1.41l-5.64-2.82,1.41-1.41-2.115-.7h-3.525c.705,0,.705,0,0,.7-.705,0-.705,0-.705-.7l-5.64-1.41c2.82,1.41-2.82,1.41,0,0-9.165-.705-14.1-2.115-13.395-3.525H172.372c0-.705-1.41-2.115-3.525-1.41l.7-.705h-.7c-2.115,0-7.05,2.115-14.805,5.64.705,0,.705.705.705,1.41h-2.115c0-2.115,0-2.82.7-3.525h-1.41a5.345,5.345,0,0,1-2.82,1.41v-1.41l-.705-.705c2.115.705,3.525,0,4.935-1.41l-1.41-1.41h-.7c-.705,0-3.525,1.41-4.23,1.41,0,2.82-4.23,8.46-12.69,17.625-8.46,8.46-13.395,13.395-14.1,15.51L90.592-159.33q-21.15,51.817-21.15,80.37c0,51.465,50.76,69.795,50.76,73.32.7-.7,1.41-1.41.7-2.115,2.115,2.115,3.525,2.82,5.64,2.82.705,0,.705,0,.705-.705l.7.705a5.329,5.329,0,0,1,2.82.7h2.82c0-.7,1.41-.7,3.525-.7l4.935-.705h1.41l1.41.705,1.41-1.41H148.4c0,1.41,0,2.115-.705,2.115h.705c2.115,0,7.755-4.23,9.87-3.525a245.807,245.807,0,0,0,21.855-12.69Zm-1.41-190.35-2.82.7c.705,0,.705,1.41,0,1.41v-.7l-2.115.7c0,.705,0,1.41-.705,1.41-1.41,0-1.41-.7-.705-1.41L162.5-205.155a5.329,5.329,0,0,0-2.82.705h-2.115l-1.41-.705h-.7c0,3.525,1.41,5.64,4.935,7.05v.705l-1.41-.705c3.525,4.935,5.64,7.755,6.345,7.755-1.41-2.115-2.82-3.525-3.525-5.64,1.41,1.41,7.755,7.05,7.755,7.755h-.705l-1.41-.705h-.7l5.64,5.64c-.7-.705-.7-1.41,0-1.41,0,.7,0,.7.705,1.41,7.755,4.935,17.625,7.755,31.02,7.755l2.115-.705h8.46l32.43-3.525c0-.705,0-1.41.705-1.41v1.41l7.05-.705v-.7h.705c-2.82-1.41,2.82-1.41,0,0h4.23c-2.82-1.41,2.82-1.41,0,0,2.82,0,11.28-.7,14.8-.7,0,2.115-1.41,6.345-1.41,7.05h-1.41a1.516,1.516,0,0,0,1.41,1.41l-2.115,2.115h.7c0,.705-.7,3.525-.7,4.23l-1.41-1.41c-.7,2.115.7,4.935-1.41,7.05l-1.41-.705v1.41c-17.625,44.415-26.085,83.19-26.085,114.915,0,22.56,8.46,45.825,28.2,45.825,0-.705.7-1.41,2.82-2.115h-.7c-.705,0-.705-2.115,0-2.115a2.59,2.59,0,0,1,.7,2.115h1.41c0,.7-2.82,2.115-2.82,2.82h.705c.7,0,2.82-1.41,5.64-3.525l-.7-1.41.7-1.41.705,1.41c3.525-1.41,4.935-9.165,4.935-22.56,0-2.115-.705-4.935-.705-7.05,0-2.82,2.115-10.575,2.115-13.4l-.705-1.41v-1.41c.705,0,1.41-1.41,2.115-3.525,3.525-9.87,4.935-16.92,4.935-21.15l-.705-.705c.705,0,1.41-.705,1.41-2.115A348.093,348.093,0,0,0,302.8-111.39c3.525-.7,7.05-9.87,9.165-27.495,2.82-17.625,6.345-27.5,9.87-29.61,2.82-13.395,2.82-16.92,11.985-21.15h-6.345c2.115-2.115,3.525-2.115,4.935-1.41a3.663,3.663,0,0,0-2.82-1.41c0-2.82,5.64-4.935,16.92-5.64-.705,0-.705,0-.705-.705v-.705c0-.705,0-.705.705-.705q-1.058-2.115-2.115-2.115c-2.82,0-10.575,1.41-13.4,1.41v-2.115c7.755-.705,33.84-.705,45.12-2.82a7.666,7.666,0,0,0,3.525-.705v-1.41c-3.525,0-24.675-2.82-28.905,1.41v-2.115c11.28,0,37.365-4.23,37.365-.7-3.525.7-5.64,2.115-5.64,2.82,4.23,0,6.345,0,6.345.705l.705,1.41H387.4a9.435,9.435,0,0,0-3.525-.705c-4.935,0-16.215,4.23-21.855,4.23-2.115,0-7.05-.705-10.575-.705l.705.705.7.705.7.705h-5.64v1.41c6.345-.705,15.51-.705,26.79-.705h1.41l-4.23,1.41h2.82a24.284,24.284,0,0,0,6.345-.705v-.705c.705,0,6.345-2.115,7.05-1.41l-.7-1.41h2.82l2.82-1.41c4.935-2.82,11.28-5.64,14.1-5.64h1.41l2.115.705,2.82,1.41c2.82,0,6.345-8.46,6.345-11.28,0-19.035-26.79-28.905-80.37-28.905v-.705a61.706,61.706,0,0,0,1.41-11.28c0-6.345-7.755-21.15-14.1-21.15h-.705a7.221,7.221,0,0,1,4.23,3.525h-2.115l-.7.7c-.7,0-.7-1.41,0-1.41l-3.525-1.41.7.705-1.41.7c-.7,0-.7,0-.7-.7v-.705l.7-.7c-2.115-.705-3.525-2.115-3.525-2.82l-2.115,2.115c0-1.41-.7-2.115-1.41-2.115,0,2.115-2.82,5.64-2.82,7.755l1.41.7c-2.115.705-2.82,4.23-3.525,4.935-.705,2.115-3.525,12.69-5.64,17.625s-6.345,10.575-11.985,11.28l-33.84,6.345h-.705l-56.4,14.1-21.855,8.46-1.41.7Zm148.755,95.88c0,2.82-4.23,13.4-4.23,16.92,0,6.345,1.41,14.1,3.525,21.855h-.7l-1.41-1.41v.705c0,9.87,11.985,19.035,15.51,26.085h-1.41l1.41,1.41a2.59,2.59,0,0,1,2.115-.705h.7l.705.705c-2.115,0-2.115,1.41.7,1.41v1.41c2.82,0,5.64,3.525,6.345,3.525h.705c-.705-.7-.705-.7-.705-1.41q5.287,0,4.23,2.115c.705,0,1.41-.705,2.115-1.41s.7-.705,1.41-.705c1.41,0,2.115,1.41,2.115,3.525-1.41,0-2.82,0-3.525.7,1.41.705,4.23,1.41,8.46,1.41,4.935,0,7.755-.7,9.87-2.115l-.7-.705c9.165,2.115,23.97-7.05,45.825-28.9s32.43-38.775,30.315-50.055l1.41.705a5.329,5.329,0,0,0-.705-2.82c0-.705,0-.705.705-1.41v-15.51c0-2.115-6.345-8.46-7.05-8.46v.7c-.7,0-4.935-2.115-7.05-2.115v-1.41h1.41c-.705,0-.705-.705-.705-1.41-4.23-1.41-7.05-2.115-7.755-2.82h4.935c-.705-.705-2.82-1.41-5.64-1.41h-.7c-.705.7-2.115.7-5.64.7l-2.115-2.115-.705-.705-.705-.705c.705,0,.705-.705.705-1.41,0-6.345-7.05-10.575-20.445-14.1v.705c-2.115,0-5.64-1.41-7.755-1.41v.705l-4.23,1.41h-.705l1.41-1.41-2.115-2.115,1.41-.705H387.4l-1.41-.7h-2.115l2.115.7c-2.115,0-7.755,3.525-8.46,3.525l-.7-.705c.7,0,.7-.705,1.41-1.41l.705-.7c-14.1,0-31.725,20.445-52.17,61.335.7,0,.7,0,.7.705h.7a2.59,2.59,0,0,1,.705-2.115c.7,0,.7,2.115,0,2.115Zm78.96-19.74c0,.705.7.705.7,1.41v2.115l-2.115-2.115-.705-1.41v.705c1.41,2.82,2.115,6.345,2.115,11.28v1.41c0,9.165-5.64,20.445-16.92,32.43s-21.855,17.625-31.725,17.625c-3.525,0-4.935-2.115-4.935-6.345,0-20.445,12.69-42.3,37.365-64.86h4.23c6.345,0,10.575,2.115,11.985,7.05v-.705C406.432-136.065,406.432-134.655,407.138-134.655ZM676.447-245.34v.705c-.7,0-.7-2.115,0-2.115v.705c0-.705,0-1.41.705-1.41h.705a5.345,5.345,0,0,1-2.82-1.41l.705-.705c0-.7-.705-.7-1.41-.7-.705-.705-.705-.705-.705-1.41h1.41l-1.41-2.82-1.41.705h-.705v-2.115c-2.82-1.41-4.23-2.115-4.23-2.82l-.705.705h-.7l.7-1.41c0-.7-2.82-3.525-4.935-4.23l-1.41-1.41c-.705,0-.705,0-.705-.705,0,2.115-2.82-.7-.705-.7q-9.517-10.575-33.84-10.575c-26.79,0-57.105,11.985-91.65,35.25-3.525,0-14.8,4.935-12.69,8.46l-21.15,17.625h-4.23v1.41c7.755,7.755,11.28,11.985,11.985,14.1a1.351,1.351,0,0,1-.7,2.115l-25.38,55.695c-4.935,10.575-10.575,27.5-16.92,50.055-6.345,21.855-9.87,41.595-9.87,59.22,0,19.74,6.345,45.12,23.265,45.12,4.935,0,9.165-2.82,12.69-7.755l14.1-20.445v-.7l-.7-.7c-2.115,0-7.755,4.935-10.575,4.935,0-2.82,1.41-9.87,4.935-20.445s5.64-16.215,7.05-16.215h.7a6.442,6.442,0,0,0,3.525,2.115q11.633,0,12.69-4.23a31.931,31.931,0,0,1,11.28-2.115c10.575,0,24.675,3.525,41.6,11.28l14.8,9.165,19.74,11.28,18.33,8.46c16.215,7.755,27.495,9.87,39.48,9.87s21.855-4.935,28.2-14.805l-2.82-.7c-4.935-.7-10.575-2.115-11.28-2.82L588.322-73.32c-3.525-2.115-13.395-5.64-13.395-9.165L585.5-90.24c23.97-17.625,47.235-41.6,69.09-71.91,14.1-10.575,31.725-38.07,31.725-54.285,0-.7-.7-.7-.7-1.41v-1.41l.7-4.23v-.7l-.7-.705v-.7l.7-1.41v-.705c0-9.87-2.115-16.92-7.05-20.445,0,.705,0,.705-.7.705h-.705a1.351,1.351,0,0,1-.705,2.115Zm-37.365,9.165c-2.82-1.41,2.82-1.41,0,0h4.935c0,25.38-26.79,58.515-80.37,98.7-21.855,17.625-34.545,26.085-36.66,26.085h-1.41L556.6-197.4c2.82-7.755,14.1-15.51,22.56-19.035l28.905-11.28c-.705-.7-1.41-1.41-1.41-2.115v-.7a3.778,3.778,0,0,0,2.82,2.115h.705l-.705-.7h2.115l-.705-.705H613l-.7-.7a34.365,34.365,0,0,0,9.165-2.82,1.516,1.516,0,0,1-1.41-1.41h.7c.705,0,4.23.705,4.935.705h1.41l9.165-2.115v-.7l1.41.7Z" transform="translate(768.521 1225.08)" fill="#fff"/>
    <path id="Path_481" data-name="Path 481" d="M68.033-13.395h-.7l.7-.7v.7l6.345-2.115.7-1.41v1.41l2.115-.7c0,.7,1.41.7,1.41,0H77.2l3.525-1.41c-.705.7-.705.7-1.41.7h.7c2.115,0,4.935-.7,8.46-1.41h-4.23c.7,0,3.525-.7,4.23-.7l.7.7v-.7h-.7l.7-.7v.7c.7-.7,2.115-.7,4.23-.7l.7.7h.7c.705,0,1.41-.7,3.525-1.41L147.7-35.25a1.516,1.516,0,0,0-1.41-1.41c-4.935.705-20.445,7.755-26.79,7.755l-.7-.7c-2.115-2.115-2.115,1.41-5.64,1.41l-2.115-.705c0-.7-.705-1.41-2.115-1.41a5.345,5.345,0,0,0,1.41,2.82h-.7c-.7,0-2.115-.7-2.82-2.82h-.7c0-1.41,2.82-2.115,9.165-2.115h.7l1.41.7c0-2.82,12.69-4.935,14.8-4.935,0,.705.705.705,1.41,1.41a61.993,61.993,0,0,0,14.1-2.115h1.41l9.165-2.115h0c4.935-1.41,7.755-2.82,9.87-4.935l21.15-4.23v-1.41c2.115,0,14.8-3.525,14.8-4.23v-.705h2.115V-55.7h2.82V-57.1c9.87,0,16.215-2.82,19.035-7.755h-1.41c-24.675,0-62.745,2.115-113.505,5.64s-88.83,5.64-114.21,5.64c-47.235,0-86.715-5.64-117.735-16.92l-2.82-2.115,2.82-1.41c24.675-19.74,53.58-38.775,86.01-57.81l2.82-2.115,81.78-54.285,10.575-7.755c9.87-8.46,37.365-23.97,44.415-33.84l44.415-32.43,5.64-3.525-2.115-.7q2.115-2.115,2.115-6.345c0-2.115-1.41-3.525-3.525-4.23h.705a4.239,4.239,0,0,1,2.82.705v-.705q-3.172,0-4.23-2.115h1.41c0-.705-.705-1.41-2.115-1.41l-1.41.7A3.877,3.877,0,0,1,146.992-282v.705c-.705,0-.705-2.115,0-2.115a5.385,5.385,0,0,0-3.525-1.41,6.442,6.442,0,0,0-2.115-3.525l-2.82-2.115v1.41l.7.7c-.7,0-4.23-6.345-6.345-6.345l.705-.7c0-.7,0-.7-.705-.7l-2.82-2.82v1.41l-.705,1.41c-.705-2.115-6.345-6.345-6.345-7.05q-3.172,0-2.115-2.115h-4.935c-7.05,0-3.525,1.41-8.46,4.935l-164.265,112.1-.705.7-66.975,48.645a5.345,5.345,0,0,1-2.82,1.41l-24.675,19.035a27.63,27.63,0,0,0,2.82-6.345c2.82-4.935,5.64-11.28,9.165-19.035l-1.41-.705.7-.705.705-.705v-.705h.7v-.705c0-.7.705-2.115.705-2.82.7.705.7.705,1.41.705-.705-.705-.705-.705,0-.705l.7-.705v-.705l-.7-.705,1.41-.705h.705V-155.1l2.115.705c-.7-.705-1.41-1.41-1.41-2.115l1.41-.705-1.41-.705.705-.705c0,.705.7.705,1.41.705q2.115-4.23,2.115-6.345c.705,0,1.41-.705,1.41-2.82h.705c2.115-4.935,3.525-7.755,3.525-8.46v-.705h1.41l6.345-13.395,21.15-37.365a21.85,21.85,0,0,0,4.23-9.165c17.625-34.545,27.495-66.27,30.315-95.175,0-.7-.7-2.82-.7-3.525v-.705l1.41.705c-.705-2.115,1.41-5.64,1.41-6.345v-.705c0,.705-.705.705-1.41.705v-.705l-.705-2.115v-.7l1.41.7c0-.7-1.41-3.525-2.115-5.64l-.705-1.41h1.41a14.748,14.748,0,0,0-4.23-2.82l.705-.705-.705-.7v1.41l-1.41-.705-.705-.7.705-.7c0-2.115-2.115-3.525-5.64-3.525l-.7-2.115v-2.115l.7-.705h-4.23l-1.41-1.41-1.41.7a5.345,5.345,0,0,1-2.82-1.41h3.525l-.705-.705-.7-.7a22.518,22.518,0,0,1-9.87-2.115c0-.705-.7-1.41-2.82-1.41h-1.41l.705,1.41a22.561,22.561,0,0,0-9.165-3.525l.705,1.41h-2.115v.7h-2.82l-2.82,3.525a2.59,2.59,0,0,1,.705,2.115v.7c-12.69,20.445-21.855,38.07-26.79,52.875l-84.6,179.07-23.97,67.68a282.47,282.47,0,0,0-16.92,97.29c0,42.3,9.87,65.565,40.89,84.6.705,0,.705.7.705,1.41h4.23c-2.82-1.41-4.23-2.115-4.23-2.82l2.115.705h2.82c2.115,0,4.935-4.23,8.46-4.23v1.41h-1.41l2.115,1.41,4.935-4.935h.705c2.82-5.64,5.64-8.46,7.755-8.46,0-3.525,4.23-9.165,11.985-18.33,8.46-8.46,12.69-15.51,12.69-20.445v-.705h-.705c-12.69,16.215-23.265,26.085-32.43,28.2-.705.705-1.41.705-3.525,0v-4.23l-1.41,2.82h-.705v-2.82c-1.41,0-2.115-2.115-2.115-5.64V78.96l.705-1.41c0-.705-.705-1.41-2.115-.705V70.5l.705-1.41V59.925c-.705-.705-1.41-1.41-1.41-2.115.7,0,.7,0,1.41-.705V49.35c0-7.05,0-12.69-.705-16.215h-1.41a1.516,1.516,0,0,1,1.41-1.41l2.82-24.675c-.705,0-.705-.7-.705-2.115h.705c.705-4.935,4.23-20.445,11.28-46.53,2.115,0,9.165,8.46,11.28,10.575h5.64c8.46,0,28.2-6.345,36.66-6.345,2.115,0,9.87,1.41,21.855,4.935l23.97,11.985c1.41-.7,3.525,0,5.64,1.41-.705.7-.705,1.41,1.41,1.41-2.82-1.41,2.82-1.41,0,0,2.115.7,3.525,1.41,4.935,1.41h-2.115c8.46,4.23,14.1,6.345,17.625,6.345h.705l1.41-.7c2.115,0,2.82.7,2.82,1.41h-2.115a36.377,36.377,0,0,1,7.755,1.41h-2.115c7.05,2.82,12.69,4.23,16.215,4.23v-2.82c.705.7,1.41.7,3.525,0V-4.23c2.115,0,2.115-.7,4.23-.7,2.82,0,9.87.7,13.395.7-.7,0-.7,0-.7.705h1.41l-.705-.705h13.4v-.7a5.345,5.345,0,0,1-2.82-1.41h.705c.705,0,4.23.7,6.345.7-.705,0-.705,0-.705.705H-6.7c0,.7,0,.7.705.7l8.46-.7L-.353-7.05q3.172,0,4.23,2.115L5.992-7.05a6.4,6.4,0,0,1,4.935,2.115h.7c2.115,0,2.82-.705,2.82-1.41.705.7,1.41.7,2.82.7l2.115-.7h-1.41c2.115,0,2.82,0,2.82-.7.7,0,.7,0,1.41.7l.7.7c4.23,0,6.345-.7,7.05-1.41a29.2,29.2,0,0,1,9.87-1.41h7.05l-.7-1.41h.7c.705,0,2.115,1.41,4.23,1.41V-9.87h1.41v-.7c1.41,0,2.115,0,2.82.7a4.239,4.239,0,0,0,2.82-.7c-2.82-1.41,2.82-1.41,0,0l9.165-2.82c0,.7,0,.7.7.7Zm74.73-150.87c-2.82,1.41,2.82,1.41,0,0h1.41v-3.525l10.575-21.855.705-2.115v-.7c0-.705,0-.705-.705-1.41h-.705l-.705.705h-2.82l.705-1.41v-1.41l.705-.705c0-3.525-8.46-4.23-8.46-4.935v-1.41h4.23c-.705-2.115-8.46-2.115-9.165-2.82v.705c-2.115,0-4.23-1.41-7.05-1.41h-.705l3.525,1.41h-1.41c-3.525,0-4.935-.705-5.64-2.82-2.115.7-4.23.7-7.755.7h-3.525l-.7-1.41-6.345,2.115h-.7l-2.115-.705H105.4c-2.115,0-11.985,23.97-29.61,71.205-4.935,40.185-7.05,62.745-7.05,69.09h-1.41c0,11.985,7.755,31.02,19.035,31.02l2.115-.705h1.41l-.705-.7,3.525-3.525v3.525c7.755,0,11.985-19.035,11.985-28.2l-.705-1.41c-.705,2.82-6.345,11.28-7.05,11.28,0-4.935,11.28-20.445,9.165-23.97l1.41.705v-.705a5.329,5.329,0,0,1,.705-2.82l.7-2.115L133.6-137.475v-2.115c-4.935,7.05-7.05,11.985-7.05,14.1h-.705a19.08,19.08,0,0,1-2.115,5.64l-1.41-.705c.7,2.82-9.165,15.51-7.05,19.035a1.516,1.516,0,0,1-1.41-1.41c0-3.525,1.41-8.46,4.23-16.215,3.525-7.755,6.345-11.985,8.46-11.985v-2.82h.705l2.82-7.05,7.05-14.1,3.525-7.05.7-.705.705,1.41v-2.82Zm35.25-118.44c4.935,0,7.755-2.115,7.755-5.64V-301.74l-.705-2.115c-5.64-11.28-20.445-21.15-32.43-21.15Q152.632-282.7,178.012-282.7Zm20.445,39.48,8.46-4.23h2.115c-4.23,11.985-12.69,31.725-26.085,59.925A568.956,568.956,0,0,0,152.632-113.5c-6.345,21.855-9.87,43-9.87,64.155,0,20.445,3.525,33.84,9.87,40.185l11.28,11.28a9.434,9.434,0,0,1,3.525.705l2.82.7.705,1.41h.705c5.64,0,11.985-8.46,11.985-2.115l1.41-2.115c1.41-2.115,2.115-3.525,2.82-3.525l.705.705c3.525,0,9.87-7.755,9.87-10.575h-1.41c0-3.525-.705-4.935-1.41-5.64l.705,2.115v.7l-1.41-.7V-14.1l-1.41-.7v-.705c0-2.82,2.115-9.165,2.115-11.985,0-3.525-1.41-4.935-4.23-5.64L189.292-28.2c-.705,0-.705,0-1.41.7l-.705.705a2.59,2.59,0,0,1-.7-2.115h-.705l.705-.7,1.41-.705V-33.84l-.705-2.82v-2.82l.705-1.41-.705-1.41v-7.755a69.53,69.53,0,0,1,2.115-16.92v5.64a12.4,12.4,0,0,1,.705-4.23l.705-2.82V-70.5H190c.705-4.935,4.935-16.92,5.64-22.56h.705l.705,1.41.705.705c1.41,0,2.115-3.525,2.115-9.87,0-.7,0-.7-.705-1.41l-.705-.705c0-3.525,8.46-19.035,8.46-24.675,0-2.115-.705-2.82-1.41-2.82-.705.705-2.115,4.23-2.82,6.345v-1.41c0-4.935,5.64-15.51,5.64-20.445h2.115v-2.115c.7,0,1.41.7,2.115,1.41,4.23-8.46,0-7.755,0-12.69,0-2.82,1.41-4.935,4.935-6.345l-.705-.705c0-5.64,9.87-17.625,9.87-22.56h.7c0,2.82-2.82,10.575-2.82,12.69a30.534,30.534,0,0,1,.705,3.525v.705c0,3.525-5.64,11.985-5.64,15.51h.705q2.115,0,4.23-8.46L236.527-198.1c-1.41-2.115,0-5.64,4.935-10.575l-.705-.7v-.705c0-2.115,2.82-5.64,2.82-8.46v-.7l-1.41,2.115-1.41,2.115v-.7c0-2.115.705-3.525,2.82-4.935a1.869,1.869,0,0,0,2.115,2.115l.7.705v-.705c0-4.935,6.345-16.92,7.05-19.035v-.7h.7c.7,0,.7-2.115,0-2.115,2.115,0-.7-2.82-.7-.705v-3.525l1.41.705h.705c1.41,0,3.525-2.82,7.05-7.755v.7l1.41-1.41h-1.41c4.23-6.345,8.46-9.165,12.69-9.165l2.82.7c0,.705.705.705,1.41,1.41l2.115-2.115c7.05.7,13.395.7,18.33-.705l.705-.7a2.59,2.59,0,0,1,2.115.7l1.41.705v-.705c1.41,2.115,7.755,2.82,18.33,2.82l.7.7c13.4-2.115,30.315,14.805,36.66,14.805h.705l3.525-4.935c0-2.115-1.41-6.345-3.525-12.69l-2.115,2.115c0-12.69-8.46-21.855-24.675-28.2s-31.725-9.87-46.53-9.87c-4.23,0-16.92,2.115-37.365,7.05-20.445,4.23-33.135,5.64-39.48,4.23l-81.78,23.265a37.825,37.825,0,0,1-13.395,2.82c-2.82,0-6.345-3.525-8.46-3.525H106.1a5.329,5.329,0,0,1-.705,2.82v1.41c0,25.38,37.365,23.265,51.465,21.855,2.115.705,7.755,1.41,16.215,1.41,9.165,0,14.1-.7,16.215-2.115-.705,0-.705-.705-.705-2.82,1.41,0,2.115,0,2.82.705l.7-1.41h1.41l.705.705c.705,0,1.41-.705,3.525-1.41h.7Z" transform="translate(933.521 884.08)" fill="#fff"/>
    <path id="Path_480" data-name="Path 480" d="M-89.964-154.581c0,.357.714.357.714,0a1.312,1.312,0,0,1,1.071-.357,2.763,2.763,0,0,0,1.071-.357h-.357l6.783-.714h1.071v-1.428c1.071,0,1.785,1.428,2.142,1.428,2.142-1.428,2.856-1.785,5-.714,0-1.071,1.428-1.785,4.284-1.785L-89.607-64.26c-1.071,5.355-2.142,18.564-3.57,23.919-1.071,11.781-1.785,21.42-1.785,28.917,0,27.489,5,41.412,15.351,41.412h1.428l.357-.357,2.142-3.213v-.357c0-1.428-1.428-3.57-1.428-4.641V17.493A131.511,131.511,0,0,1-75.684-1.428c2.856-4.641,6.069-13.923,9.639-27.132q5.355-20.349,5.355-28.917A134.6,134.6,0,0,1-58.548-71.4c1.071-5.355,2.142-8.568,2.856-9.282l.714.357a1.312,1.312,0,0,1,.357-1.071,2.7,2.7,0,0,1-.357-1.428c0-5.355.714-9.282,2.142-11.424,0,.357.357.357.714.357s.714-.357,1.071-1.071l-.714-1.428-.357-.357a2.727,2.727,0,0,1,.714-1.785c-.357-.357-.357-1.071-.714-2.5q0-2.677,2.142-11.781c1.428-6.426,2.5-9.639,3.213-9.282l-.357-.714v-.357c0-2.142.714-5.712,1.785-10.353l2.142-8.211c1.071-.357,1.071-6.426,2.5-6.426,0,.357-.357,3.213-1.071,8.211,0,.357-1.428.357-1.428.714l1.071,1.071v3.927l-1.428,1.428v.357c0,.357,0,.357.357.714v5.712l-1.071,2.856.357.357v.357c0,.357-1.071,2.142-1.071,3.213l.357,1.071v1.071l-.357.714.357.357-.357.357.357.714v.714c-.714,0-1.071.357-1.428,1.428h.714c.714,0,1.071,0,1.071-.357a17.753,17.753,0,0,0,1.071-5.712v-.714l-.357-.357c0-1.071.714-1.785.357-3.213l1.071-.357a30.7,30.7,0,0,1,3.213-10.71c0,2.5-2.142,8.211-2.142,10.71v.357l.357.357c.714-3.213,1.428-5.355,2.142-6.069a230.771,230.771,0,0,0,6.783-25.347l.357-10.71,31.059-3.213.714.714H-1.428c0,1.071.357,1.428,1.071,1.428l.714-.357H2.5c1.785,0,2.5,0,2.856.357l1.428-.714.714.357h.714c1.071,0,1.428-.357,1.428-.714a1.855,1.855,0,0,0-.714-1.428h.714c1.428,0,1.785,1.785,2.856,1.785v-.714l-.357-.357v-.357l.357-.714h.357l3.213,1.785h.357c1.071,0,2.5-.714,3.57-.714l-.357-.357c2.856.357,9.282-.357,11.067-.357l.714-.714,1.071.714,3.927.357h.357v-.357l-.357-.357c0-.357.357-.714,1.071-.714H38.2l-.714.357c.357.357,1.785.714,3.927.714l.357-.714h.714a1.311,1.311,0,0,0,1.071.357,2.146,2.146,0,0,0,1.428-.357h9.282l.714-.357c7.854,3.213,17.493,3.213,28.917-.714V-171c1.785,0,5-1.785,9.639-5,5-3.213,7.5-6.069,7.14-7.854-.357-3.213-3.57-6.426-8.925-9.639s-9.639-5-12.852-5c-1.071,0-2.856.714-3.927.714-3.927,0-10-.357-17.85-.714-7.854-.714-13.566-1.071-17.493-1.071a268.113,268.113,0,0,0-36.414,1.428c-13.923,1.428-22.848,2.142-27.132,2.142-2.5,0-6.783-1.428-13.566-4.284q-9.639-4.284-14.994-4.284c-3.213,0-1.785,1.428-3.57,3.213a.947.947,0,0,1,1.071,1.071,28.3,28.3,0,0,1-1.785,8.925c-1.428.357-.714,2.856-2.5,3.213L-75.327-186l-102.459,29.631a24.569,24.569,0,0,1-4.641.714c-1.428,0-4.641-.357-6.069-.357,0,1.071.714,1.785,1.785,2.5l1.785.714H-186c3.213,4.641,12.138,7.14,26.418,7.854l.357.357h1.785a128.265,128.265,0,0,0,16.779-1.071l-.357-.714h.357a2.7,2.7,0,0,1,1.428.357l1.071.357.357-.714h-1.785a3.018,3.018,0,0,1,2.142-.714c1.071,0,1.071.357,2.142.357h.357c-.714,0-1.071-.357-1.071-.714,13.923-3.213,27.846-6.783,31.773-7.854a37.5,37.5,0,0,1,4.641-.714c4.641,1.428,7.5.357,8.211,1.071-.357,1.071-1.785.714-2.142,1.071h.357A18.109,18.109,0,0,0-89.964-154.581Zm114.24,53.55-1.071,1.785c.357,0,.357,0,0,.357l-2.856,3.57-.714.714A102.213,102.213,0,0,0-2.856-90.321h-.357c0-.357-.357-.357-.357-.714l.714-1.785,2.856-10,.357-.714,8.925-31.059a34.541,34.541,0,0,1,3.927-6.426q0-1.071-2.142-2.142c-8.211-1.785-13.923-2.5-16.779-2.5-1.785,0-2.5.357-2.856.714l-.357-.357h-.357l-.714.714a2.7,2.7,0,0,1,.357,1.428v.714q0,8.032-10.71,25.7l-6.069,16.422a9.051,9.051,0,0,0-1.428,4.284l-3.213,10c-1.071.357-1.071,1.071-.714,2.142l-4.284,12.852c-2.5,7.14-3.927,12.138-4.641,14.994-1.428,5.355-3.927,18.207-3.927,27.132,0,13.566,5.355,20.349,16.422,20.349a15.861,15.861,0,0,0,14.637-8.568L13.209-68.187l3.57-5.712c.357.357.714,0,1.071-.357,0-.357.357-.714,1.071-1.785h.357v.714l-2.5,12.138c0,1.071,0,1.428-.357,1.785-3.57,23.919-5.355,40.7-5.355,49.623v2.5c0,9.639,0,12.5,1.785,19.992s6.783,11.067,14.28,11.067c5.712,0,8.925-12.138,8.925-18.207,0-3.213-2.142-11.781-2.142-14.637v-.714a16.393,16.393,0,0,1,.357-3.57L40.7-36.414c1.785-2.856,2.856-13.209,5.355-16.065a179.985,179.985,0,0,1,5.712-17.136,211.68,211.68,0,0,0,7.14-23.562c1.785-7.14,2.5-13.209,1.785-17.85l.714.357c-.357-2.5,0-6.426,1.428-12.5,1.785-6.069,2.5-10.353,2.5-12.5,0-5-3.57-7.14-10.71-6.783l.357-.357c-1.071-.357-4.284-.714-10-.714,0,.357,0,.357.357.714v1.428a1.855,1.855,0,0,1-1.428-.714l.357-.357v-.357l-.357-.357h-.357c-.357,0-2.142,1.071-3.213.714-3.927,4.641-5.355,3.57-4.641,10-4.641,14.994-8.211,25.347-11.067,31.059v.357ZM-9.282-74.256l.714-1.071H-7.14c1.785,0,7.5.714,10,.714,1.785,0,6.069-.357,7.5-.357h.714L-8.925-37.842l-10.71,15.351-3.57,3.57h-.357c0-.357-.357-.357-.357-.714v-2.5c0-12.852,2.142-22.848,6.783-29.631ZM60.333-34.272a20.79,20.79,0,0,1,1.071,5c2.856,5.712,6.069,9.639,10,11.781,0-.357,0-.714.357-.714v.714a11.02,11.02,0,0,0,3.57,1.785c-1.428.714,1.428.714,0,0l3.213,1.071c0,1.071,3.57,2.856,5,2.856l.357-.357h.714c.714,0,1.071.357,1.071.714h-.357c-.357,0-.357,0-.714-.357,0,1.071.357,1.428.714,1.428h.357c0-.357.357-.357.714-.714.357.357.714.714.714,1.071.357,0,4.641.357,5,.357h.714L92.463-10c2.5,0,5.355-.714,7.14-.714l-.357-.714a9.59,9.59,0,0,0,4.641-1.428h.357l.357.714c.357,0,.357-.357.357-1.071h1.071l-.714.357h.714a2.827,2.827,0,0,0,2.856-1.785h-1.428q3.213-3.213,5.355-3.213l.357.357.357.357c-.714,0-1.428.357-2.5,1.428l-.357.357c1.428,0,5-2.142,5-3.57h1.071l2.5-2.142A104.971,104.971,0,0,0,132.8-36.771c.357-2.5,3.213-6.783,8.211-12.495-1.071-2.5,1.428-6.783,7.14-13.209,6.069-6.783,8.925-11.067,8.925-13.209h-.357a98.268,98.268,0,0,1-13.566,10.71q-9.639,6.426-12.852,10.71l-7.5,5.712-10,7.854c-2.5,1.785-5.712,3.927-10,6.426-8.211,5.355-15.351,7.854-22.134,7.854-1.428,0-2.142-2.5-2.142-7.14,0-7.5.714-11.067,1.785-11.067h.357c0-.357,0-.357.357-.714.357,0,.357.714,0,.714l.714.357h.357c-1.428-.714,1.428-.714,0,0a3.769,3.769,0,0,0,1.785.714c-.357,0-.357-.714,0-.714v.714l2.142,1.071c0-1.428,1.428-.714.357.357a15.712,15.712,0,0,0,3.57.714c6.783,0,13.566-3.927,21.063-11.781v-.714l-.357-.357c6.069,4.284,23.562-33.558,22.848-43.2a18.086,18.086,0,0,0-5.712-13.566c0,.357-1.071.357-1.071,0h1.071c-4.641-4.641-10.71-7.14-18.207-7.14v.714h-5.712l-.357-.714c1.071.357,1.428.357,1.428-.714l-.357-.357c-1.428,0-4.284,1.785-4.641,1.785a2.727,2.727,0,0,1-1.785-.714c1.785,0,2.856-.357,2.856-1.071H99.246a2.7,2.7,0,0,1-1.428.357c-12.138,10-22.848,24.99-31.773,44.625a78.509,78.509,0,0,1-7.854,23.919v8.568l2.142,7.5c0-.357,0-.357.357-.357v.357Zm47.481-61.761c1.785-1.785,2.856-2.5,3.927-2.5,2.856,0-.714,5.712-.714,8.925,0,1.071,0,1.428.357,1.785l-.714-.357c-2.856,6.426-10.353,16.065-22.491,28.56-1.428,1.428-3.927,2.5-5,3.57l-.357-.357q0-3.213,3.213-9.639a45.673,45.673,0,0,0,3.927-8.211l6.426-10Z" transform="translate(512.521 832.08)" fill="#fff"/>
  </g>
</svg>
