<?xml version="1.0" encoding="utf-8"?>
<!-- Generator: Adobe Illustrator 24.2.1, SVG Export Plug-In . SVG Version: 6.00 Build 0)  -->
<svg version="1.1" id="Layer_1" xmlns="http://www.w3.org/2000/svg" xmlns:xlink="http://www.w3.org/1999/xlink" x="0px" y="0px"
	 viewBox="0 0 300 300" style="enable-background:new 0 0 300 300;" xml:space="preserve">
<style type="text/css">
	.st0{fill:url(#Rectangle_2174_1_);}
	.st1{fill:#ffffff;}
</style>
<g>
	
		<linearGradient id="Rectangle_2174_1_" gradientUnits="userSpaceOnUse" x1="4.5077" y1="299.2195" x2="4.5077" y2="298.2195" gradientTransform="matrix(65 0 0 -184 -211.5 55114)">
		<stop  offset="0" style="stop-color:#ffffff;stop-opacity:0.255"/>
		<stop  offset="1" style="stop-color:#ffffff;stop-opacity:0"/>
	</linearGradient>
	<path id="Rectangle_2174" class="st0" d="M81.5,57.6L81.5,57.6c17.9,0,32.5,14.6,32.5,32.5v119c0,17.9-14.6,32.5-32.5,32.5l0,0
		c-17.9,0-32.5-14.6-32.5-32.5v-119C49,72.2,63.6,57.6,81.5,57.6z"/>
	<path id="Icon_material-touch-app" class="st1" d="M191.6,81.8l-45.2,21.7c-1.6,0.9-3,2.1-4.1,3.6l-4.6,6L90.5,76.2
		c-6.4-5.1-15.7-4-20.8,2.4c0,0-0.1,0.1-0.1,0.1c-5,6.6-3.8,15.9,2.8,21l84.6,66l-26.4,22.5c-0.6,0.5-1.2,1.1-1.7,1.7
		c-1.8,2.3-2.6,5.3-2.2,8.2l1.5,11.1l68.7-8.4c3.9-0.5,7.5-2.5,9.9-5.6l41-53.3c4.5-5.9,3.7-13.8-1.4-19.2l-37-38.2
		c-0.5-0.5-0.9-1-1.5-1.4C203.3,79.4,196.9,78.9,191.6,81.8L191.6,81.8z"/>
</g>
</svg>
