<svg xmlns="http://www.w3.org/2000/svg" xmlns:xlink="http://www.w3.org/1999/xlink" width="14.503" height="15.253" viewBox="0 0 14.503 15.253">
  <defs>
    <clipPath id="clip-path">
      <path id="Path_285" data-name="Path 285" d="M0,3.6H14.5V-11.657H0Z" transform="translate(0 11.657)" fill="#01916d"/>
    </clipPath>
  </defs>
  <g id="Group_889" data-name="Group 889" transform="translate(0 11.657)">
    <g id="Group_888" data-name="Group 888" transform="translate(0 -11.657)" clip-path="url(#clip-path)">
      <g id="Group_887" data-name="Group 887" transform="translate(-0.001 0)">
        <path id="Path_284" data-name="Path 284" d="M3.385,0A9.56,9.56,0,0,0,1.353.323,3.749,3.749,0,0,0,.04.979a9.257,9.257,0,0,0-1.307,1.4q-.724.922-2.111,3-.989,1.48-2.364,3.657a9.356,9.356,0,0,1-1.646,2.281q-.241,0-.594-1c-.1-.3-.191-.535-.26-.708a1.809,1.809,0,0,0-.313-.557.486.486,0,0,0-.355-.131,2.355,2.355,0,0,0-1.37.495,1.373,1.373,0,0,0-.693,1.089,7.927,7.927,0,0,0,.323,1.448,1.619,1.619,0,0,0,.042.157c.188.693.351,1.221.489,1.578a4.019,4.019,0,0,0,.449.87,1.689,1.689,0,0,0,.636.542,2.112,2.112,0,0,0,.874.156A2.1,2.1,0,0,0-6.232,13.9q.22-.447.365-.7a76.48,76.48,0,0,1,4.34-6.607Q.832,3.376,3.53.365Z" transform="translate(10.973)" fill="#01916d"/>
      </g>
    </g>
  </g>
</svg>
